<svg xmlns="http://www.w3.org/2000/svg" xmlns:xlink="http://www.w3.org/1999/xlink" viewBox="0 0 750.73 500"><defs><style>.cls-1{isolation:isolate;}.cls-2{fill:url(#linear-gradient);}.cls-3{opacity:0.42;}.cls-4{fill:#fff;}.cls-5,.cls-6,.cls-7,.cls-8{opacity:0.5;}.cls-5,.cls-6,.cls-7,.cls-8,.cls-88,.cls-89{mix-blend-mode:overlay;}.cls-5{fill:url(#linear-gradient-2);}.cls-6{fill:url(#linear-gradient-3);}.cls-7{fill:url(#linear-gradient-4);}.cls-8{fill:url(#linear-gradient-5);}.cls-9{opacity:0.94;}.cls-10{fill:url(#linear-gradient-6);}.cls-11{fill:url(#linear-gradient-7);}.cls-12{fill:url(#linear-gradient-8);}.cls-13{fill:url(#linear-gradient-9);}.cls-14{fill:url(#linear-gradient-10);}.cls-15{fill:url(#linear-gradient-11);}.cls-16{fill:url(#linear-gradient-12);}.cls-17{fill:url(#linear-gradient-13);}.cls-18{fill:url(#linear-gradient-14);}.cls-19{fill:url(#linear-gradient-15);}.cls-20{fill:#cec4d6;}.cls-21{fill:#e5dfe9;}.cls-22{fill:url(#linear-gradient-16);}.cls-23{fill:url(#linear-gradient-17);}.cls-24{fill:#5c479e;}.cls-25{fill:#aca5b5;}.cls-26{fill:#c0b8cc;}.cls-27{fill:#34254c;}.cls-28{fill:#51347f;}.cls-29{fill:url(#linear-gradient-18);}.cls-30{fill:url(#linear-gradient-19);}.cls-31{fill:url(#linear-gradient-20);}.cls-32{fill:url(#linear-gradient-21);}.cls-33{fill:url(#linear-gradient-22);}.cls-34{fill:url(#linear-gradient-23);}.cls-35{fill:url(#linear-gradient-24);}.cls-36{fill:url(#linear-gradient-25);}.cls-37{fill:url(#linear-gradient-26);}.cls-38{fill:url(#linear-gradient-27);}.cls-39{fill:url(#linear-gradient-28);}.cls-40{fill:url(#linear-gradient-29);}.cls-41{fill:url(#linear-gradient-30);}.cls-42{fill:url(#linear-gradient-31);}.cls-43{fill:#c8b8d3;}.cls-44{fill:url(#linear-gradient-32);}.cls-45{fill:url(#linear-gradient-33);}.cls-46{fill:url(#linear-gradient-34);}.cls-47{fill:url(#linear-gradient-35);}.cls-48{fill:url(#linear-gradient-36);}.cls-49{fill:url(#linear-gradient-37);}.cls-50{fill:url(#linear-gradient-38);}.cls-51{fill:url(#linear-gradient-39);}.cls-52{fill:url(#linear-gradient-40);}.cls-53{fill:#2d2244;}.cls-54{fill:url(#linear-gradient-41);}.cls-55{fill:url(#linear-gradient-42);}.cls-56{fill:url(#linear-gradient-43);}.cls-57{fill:url(#linear-gradient-44);}.cls-58{fill:url(#linear-gradient-45);}.cls-59{fill:url(#linear-gradient-46);}.cls-60{fill:url(#linear-gradient-47);}.cls-61{fill:url(#linear-gradient-48);}.cls-62{fill:url(#linear-gradient-49);}.cls-63{fill:url(#linear-gradient-50);}.cls-64{fill:url(#linear-gradient-51);}.cls-65{fill:url(#linear-gradient-52);}.cls-66{fill:url(#linear-gradient-53);}.cls-67{fill:url(#linear-gradient-54);}.cls-68{fill:url(#linear-gradient-55);}.cls-69{fill:url(#linear-gradient-56);}.cls-70{fill:url(#linear-gradient-57);}.cls-71{fill:url(#linear-gradient-58);}.cls-72{fill:url(#linear-gradient-59);}.cls-73{fill:url(#linear-gradient-60);}.cls-74{fill:url(#linear-gradient-61);}.cls-75{fill:url(#linear-gradient-62);}.cls-76{fill:url(#linear-gradient-63);}.cls-77{fill:url(#linear-gradient-64);}.cls-78{fill:url(#linear-gradient-65);}.cls-79{fill:url(#linear-gradient-66);}.cls-80{fill:url(#linear-gradient-67);}.cls-81{fill:url(#linear-gradient-68);}.cls-82{fill:url(#linear-gradient-69);}.cls-83{fill:url(#linear-gradient-70);}.cls-84{fill:url(#linear-gradient-71);}.cls-85{fill:#988ca5;}.cls-86{fill:url(#linear-gradient-72);}.cls-87{fill:url(#linear-gradient-73);}.cls-88{fill:url(#linear-gradient-74);}.cls-89{opacity:0.57;fill:url(#linear-gradient-75);}</style><linearGradient id="linear-gradient" y1="250" x2="750" y2="250" gradientUnits="userSpaceOnUse"><stop offset="0" stop-color="#04074a"/><stop offset="1" stop-color="#2a246d"/></linearGradient><linearGradient id="linear-gradient-2" x1="138.57" y1="114.13" x2="-8.49" y2="17.11" gradientUnits="userSpaceOnUse"><stop offset="0" stop-color="#fff"/><stop offset="0.89" stop-color="#1d262d" stop-opacity="0"/></linearGradient><linearGradient id="linear-gradient-3" x1="611.56" y1="148.34" x2="759.65" y2="-41.61" xlink:href="#linear-gradient-2"/><linearGradient id="linear-gradient-4" x1="213.12" y1="359.66" x2="74.22" y2="445.44" xlink:href="#linear-gradient-2"/><linearGradient id="linear-gradient-5" x1="576.27" y1="403.59" x2="629.72" y2="465.55" xlink:href="#linear-gradient-2"/><linearGradient id="linear-gradient-6" x1="351.87" y1="218.3" x2="399.28" y2="218.3" gradientTransform="matrix(1, -0.07, 0.07, 1, -19.09, 26.44)" gradientUnits="userSpaceOnUse"><stop offset="0" stop-color="#34254c"/><stop offset="1" stop-color="#51397f"/></linearGradient><linearGradient id="linear-gradient-7" x1="343.99" y1="272.84" x2="399.11" y2="272.84" gradientTransform="matrix(1, -0.07, 0.07, 1, -19.09, 26.44)" gradientUnits="userSpaceOnUse"><stop offset="0" stop-color="#e1dae5"/><stop offset="1" stop-color="#f7f4f9"/></linearGradient><linearGradient id="linear-gradient-8" x1="327.34" y1="247.37" x2="342.85" y2="247.37" gradientTransform="matrix(1, -0.07, 0.07, 1, -19.09, 26.44)" gradientUnits="userSpaceOnUse"><stop offset="0" stop-color="#c8b8d3"/><stop offset="1" stop-color="#c8b8d3" stop-opacity="0.3"/></linearGradient><linearGradient id="linear-gradient-9" x1="325.2" y1="262.24" x2="390.43" y2="262.24" xlink:href="#linear-gradient-8"/><linearGradient id="linear-gradient-10" x1="348.31" y1="311.42" x2="361.7" y2="311.42" gradientTransform="matrix(1, -0.07, 0.07, 1, -19.09, 26.44)" gradientUnits="userSpaceOnUse"><stop offset="0" stop-color="#c8b8d3" stop-opacity="0.9"/><stop offset="1" stop-color="#c8b8d3" stop-opacity="0.3"/></linearGradient><linearGradient id="linear-gradient-11" x1="359.59" y1="283.46" x2="400.22" y2="283.46" xlink:href="#linear-gradient-10"/><linearGradient id="linear-gradient-12" x1="394.84" y1="304.2" x2="412.45" y2="304.2" xlink:href="#linear-gradient-10"/><linearGradient id="linear-gradient-13" x1="423.07" y1="271.98" x2="407.46" y2="280.18" gradientTransform="matrix(1, -0.07, 0.07, 1, -19.09, 26.44)" gradientUnits="userSpaceOnUse"><stop offset="0" stop-color="#fff"/><stop offset="1" stop-color="#fff" stop-opacity="0"/></linearGradient><linearGradient id="linear-gradient-14" x1="349.89" y1="219.24" x2="360.29" y2="236.51" xlink:href="#linear-gradient-8"/><linearGradient id="linear-gradient-15" x1="401.91" y1="210.39" x2="392.76" y2="226.63" xlink:href="#linear-gradient-13"/><linearGradient id="linear-gradient-16" x1="351.25" y1="260.65" x2="391.27" y2="260.65" xlink:href="#linear-gradient-6"/><linearGradient id="linear-gradient-17" x1="358.18" y1="261.9" x2="405.3" y2="259.93" gradientTransform="matrix(1, -0.07, 0.07, 1, -19.09, 26.44)" gradientUnits="userSpaceOnUse"><stop offset="0" stop-color="#2d2244"/><stop offset="1" stop-color="#3e2c5e" stop-opacity="0"/></linearGradient><linearGradient id="linear-gradient-18" x1="355.23" y1="218.27" x2="363.11" y2="244.24" gradientTransform="matrix(1, -0.07, 0.07, 1, -19.09, 26.44)" gradientUnits="userSpaceOnUse"><stop offset="0" stop-color="#ce1d3b"/><stop offset="1" stop-color="#ed202e"/></linearGradient><linearGradient id="linear-gradient-19" x1="389.5" y1="206.57" x2="394.34" y2="228.75" xlink:href="#linear-gradient-18"/><linearGradient id="linear-gradient-20" x1="361.94" y1="245.26" x2="385.18" y2="243.79" gradientTransform="matrix(1, -0.07, 0.07, 1, -19.09, 26.44)" gradientUnits="userSpaceOnUse"><stop offset="0" stop-color="#a193ad"/><stop offset="1" stop-color="#cec4d6"/></linearGradient><linearGradient id="linear-gradient-21" x1="378.7" y1="253.81" x2="375.53" y2="229.25" xlink:href="#linear-gradient-7"/><linearGradient id="linear-gradient-22" x1="363.06" y1="256.36" x2="375.78" y2="244.79" gradientTransform="matrix(1, -0.07, 0.07, 1, -19.09, 26.44)" gradientUnits="userSpaceOnUse"><stop offset="0" stop-color="#cec4d6"/><stop offset="1" stop-color="#cec4d6" stop-opacity="0"/></linearGradient><linearGradient id="linear-gradient-23" x1="369.1" y1="251.35" x2="367.42" y2="240" gradientTransform="matrix(1, -0.07, 0.07, 1, -19.09, 26.44)" gradientUnits="userSpaceOnUse"><stop offset="0" stop-color="#34254c"/><stop offset="1" stop-color="#432a68"/></linearGradient><linearGradient id="linear-gradient-24" x1="376.66" y1="250.23" x2="374.98" y2="238.87" xlink:href="#linear-gradient-23"/><linearGradient id="linear-gradient-25" x1="371.75" y1="246.82" x2="370.93" y2="238.15" xlink:href="#linear-gradient-20"/><linearGradient id="linear-gradient-26" x1="382.28" y1="240.47" x2="385.23" y2="237.32" gradientTransform="matrix(1, -0.07, 0.07, 1, -19.09, 26.44)" gradientUnits="userSpaceOnUse"><stop offset="0" stop-color="#3492b7"/><stop offset="1" stop-color="#4cc8e5"/></linearGradient><linearGradient id="linear-gradient-27" x1="383.26" y1="245.43" x2="386.57" y2="245.43" gradientTransform="matrix(1, -0.07, 0.07, 1, -19.09, 26.44)" gradientUnits="userSpaceOnUse"><stop offset="0" stop-color="#d733db"/><stop offset="1" stop-color="#f43ef9"/></linearGradient><linearGradient id="linear-gradient-28" x1="383.83" y1="226.3" x2="389.97" y2="224.71" gradientTransform="matrix(1, -0.07, 0.07, 1, -19.09, 26.44)" gradientUnits="userSpaceOnUse"><stop offset="0" stop-color="#1e45a5"/><stop offset="1" stop-color="#2265c6"/></linearGradient><linearGradient id="linear-gradient-29" x1="358.04" y1="230.51" x2="369.6" y2="227.67" xlink:href="#linear-gradient-6"/><linearGradient id="linear-gradient-30" x1="360.61" y1="215.74" x2="391.14" y2="215.74" xlink:href="#linear-gradient-6"/><linearGradient id="linear-gradient-31" x1="356.95" y1="207.13" x2="353.59" y2="207.97" xlink:href="#linear-gradient-7"/><linearGradient id="linear-gradient-32" x1="391.15" y1="198.77" x2="394.1" y2="198.16" xlink:href="#linear-gradient-7"/><linearGradient id="linear-gradient-33" x1="364.49" y1="184.34" x2="374.26" y2="184.34" xlink:href="#linear-gradient-7"/><linearGradient id="linear-gradient-34" x1="358.49" y1="203.24" x2="391.6" y2="192.09" xlink:href="#linear-gradient-7"/><linearGradient id="linear-gradient-35" x1="367.03" y1="213.29" x2="375.23" y2="184.22" gradientTransform="matrix(1, -0.07, 0.07, 1, -19.09, 26.44)" gradientUnits="userSpaceOnUse"><stop offset="0" stop-color="#c8b8d3"/><stop offset="1" stop-color="#c8b8d3" stop-opacity="0"/></linearGradient><linearGradient id="linear-gradient-36" x1="366.46" y1="217.86" x2="383.81" y2="213.55" xlink:href="#linear-gradient-7"/><linearGradient id="linear-gradient-37" x1="356.17" y1="206.97" x2="396.23" y2="199.82" gradientTransform="matrix(1, -0.07, 0.07, 1, -19.09, 26.44)" gradientUnits="userSpaceOnUse"><stop offset="0" stop-color="#201d21"/><stop offset="1" stop-color="#524b56"/></linearGradient><linearGradient id="linear-gradient-38" x1="350.83" y1="205.95" x2="369.55" y2="204.92" gradientTransform="matrix(1, -0.07, 0.07, 1, -19.09, 26.44)" gradientUnits="userSpaceOnUse"><stop offset="0" stop-color="#111011"/><stop offset="1" stop-color="#111011" stop-opacity="0"/></linearGradient><linearGradient id="linear-gradient-39" x1="378.35" y1="189.86" x2="383.61" y2="205.31" gradientTransform="matrix(1, -0.07, 0.07, 1, -19.09, 26.44)" gradientUnits="userSpaceOnUse"><stop offset="0" stop-color="#ede7f2"/><stop offset="1" stop-color="#ede7f2" stop-opacity="0"/></linearGradient><linearGradient id="linear-gradient-40" x1="385.72" y1="201.83" x2="390.97" y2="209.08" xlink:href="#linear-gradient-39"/><linearGradient id="linear-gradient-41" x1="396.57" y1="276.28" x2="417.42" y2="276.28" xlink:href="#linear-gradient-6"/><linearGradient id="linear-gradient-42" x1="356.83" y1="290.54" x2="335.31" y2="277.06" xlink:href="#linear-gradient-6"/><linearGradient id="linear-gradient-43" x1="408.2" y1="242.53" x2="405.99" y2="223.13" xlink:href="#linear-gradient-6"/><linearGradient id="linear-gradient-44" x1="343.81" y1="240.54" x2="347.48" y2="240.54" xlink:href="#linear-gradient-6"/><linearGradient id="linear-gradient-45" x1="358.26" y1="230.12" x2="369.82" y2="227.28" xlink:href="#linear-gradient-20"/><linearGradient id="linear-gradient-46" x1="341.69" y1="241.17" x2="323.09" y2="222.71" xlink:href="#linear-gradient-7"/><linearGradient id="linear-gradient-47" x1="323.06" y1="218.69" x2="328.26" y2="218.69" xlink:href="#linear-gradient-7"/><linearGradient id="linear-gradient-48" x1="319.08" y1="225.56" x2="324.65" y2="225.56" xlink:href="#linear-gradient-7"/><linearGradient id="linear-gradient-49" x1="315.74" y1="234.73" x2="323.85" y2="234.73" xlink:href="#linear-gradient-7"/><linearGradient id="linear-gradient-50" x1="316.22" y1="242.96" x2="326.19" y2="242.96" xlink:href="#linear-gradient-7"/><linearGradient id="linear-gradient-51" x1="335.42" y1="222.51" x2="331.17" y2="238.28" xlink:href="#linear-gradient-8"/><linearGradient id="linear-gradient-52" x1="347.63" y1="238.47" x2="335.02" y2="229.43" xlink:href="#linear-gradient-8"/><linearGradient id="linear-gradient-53" x1="339.6" y1="220.56" x2="340.65" y2="214.78" xlink:href="#linear-gradient-6"/><linearGradient id="linear-gradient-54" x1="324.37" y1="219.97" x2="328.26" y2="219.97" xlink:href="#linear-gradient-6"/><linearGradient id="linear-gradient-55" x1="319.79" y1="226.17" x2="324.6" y2="226.17" xlink:href="#linear-gradient-6"/><linearGradient id="linear-gradient-56" x1="319.95" y1="236.03" x2="323.85" y2="236.03" xlink:href="#linear-gradient-6"/><linearGradient id="linear-gradient-57" x1="321.43" y1="243.74" x2="326.19" y2="243.74" xlink:href="#linear-gradient-6"/><linearGradient id="linear-gradient-58" x1="-342.85" y1="255.96" x2="-361.46" y2="237.51" gradientTransform="matrix(-0.99, 0.12, 0.12, 0.99, 34.67, 20.57)" xlink:href="#linear-gradient-7"/><linearGradient id="linear-gradient-59" x1="-361.49" y1="233.48" x2="-356.29" y2="233.48" gradientTransform="matrix(-0.99, 0.12, 0.12, 0.99, 34.67, 20.57)" xlink:href="#linear-gradient-7"/><linearGradient id="linear-gradient-60" x1="-365.47" y1="240.35" x2="-359.9" y2="240.35" gradientTransform="matrix(-0.99, 0.12, 0.12, 0.99, 34.67, 20.57)" xlink:href="#linear-gradient-7"/><linearGradient id="linear-gradient-61" x1="-368.81" y1="249.53" x2="-360.7" y2="249.53" gradientTransform="matrix(-0.99, 0.12, 0.12, 0.99, 34.67, 20.57)" xlink:href="#linear-gradient-7"/><linearGradient id="linear-gradient-62" x1="-368.33" y1="257.75" x2="-358.36" y2="257.75" gradientTransform="matrix(-0.99, 0.12, 0.12, 0.99, 34.67, 20.57)" xlink:href="#linear-gradient-7"/><linearGradient id="linear-gradient-63" x1="-349.12" y1="237.31" x2="-353.38" y2="253.08" gradientTransform="matrix(-0.99, 0.12, 0.12, 0.99, 34.67, 20.57)" xlink:href="#linear-gradient-8"/><linearGradient id="linear-gradient-64" x1="-336.91" y1="253.26" x2="-349.53" y2="244.22" gradientTransform="matrix(-0.99, 0.12, 0.12, 0.99, 34.67, 20.57)" xlink:href="#linear-gradient-8"/><linearGradient id="linear-gradient-65" x1="-344.95" y1="235.35" x2="-343.9" y2="229.57" gradientTransform="matrix(-0.99, 0.12, 0.12, 0.99, 34.67, 20.57)" xlink:href="#linear-gradient-6"/><linearGradient id="linear-gradient-66" x1="-360.17" y1="234.76" x2="-356.29" y2="234.76" gradientTransform="matrix(-0.99, 0.12, 0.12, 0.99, 34.67, 20.57)" xlink:href="#linear-gradient-6"/><linearGradient id="linear-gradient-67" x1="-364.76" y1="240.96" x2="-359.95" y2="240.96" gradientTransform="matrix(-0.99, 0.12, 0.12, 0.99, 34.67, 20.57)" xlink:href="#linear-gradient-6"/><linearGradient id="linear-gradient-68" x1="-364.6" y1="250.82" x2="-360.7" y2="250.82" gradientTransform="matrix(-0.99, 0.12, 0.12, 0.99, 34.67, 20.57)" xlink:href="#linear-gradient-6"/><linearGradient id="linear-gradient-69" x1="-363.12" y1="258.53" x2="-358.36" y2="258.53" gradientTransform="matrix(-0.99, 0.12, 0.12, 0.99, 34.67, 20.57)" xlink:href="#linear-gradient-6"/><linearGradient id="linear-gradient-70" x1="401.42" y1="312.82" x2="438.06" y2="312.82" xlink:href="#linear-gradient-7"/><linearGradient id="linear-gradient-71" x1="400.43" y1="337.3" x2="443" y2="301.82" gradientTransform="matrix(1, -0.07, 0.07, 1, -19.09, 26.44)" gradientUnits="userSpaceOnUse"><stop offset="0" stop-color="#bbaec4"/><stop offset="1" stop-color="#ded1e8"/></linearGradient><linearGradient id="linear-gradient-72" x1="-1407.66" y1="900.08" x2="-1371.02" y2="900.08" gradientTransform="matrix(-0.82, 0.57, 0.57, 0.82, -1317.26, 393.15)" xlink:href="#linear-gradient-7"/><linearGradient id="linear-gradient-73" x1="311.97" y1="338.63" x2="362.06" y2="331.53" xlink:href="#linear-gradient-71"/><linearGradient id="linear-gradient-74" x1="430.42" y1="238.52" x2="326.23" y2="310.5" gradientTransform="matrix(1, -0.07, 0.07, 1, -19.09, 26.44)" gradientUnits="userSpaceOnUse"><stop offset="0" stop-color="#04074a"/><stop offset="0.89" stop-opacity="0"/></linearGradient><linearGradient id="linear-gradient-75" x1="421.04" y1="234.91" x2="317.61" y2="331.9" gradientTransform="matrix(1, -0.07, 0.07, 1, -19.09, 26.44)" gradientUnits="userSpaceOnUse"><stop offset="0" stop-color="#04074a"/><stop offset="1" stop-color="#04074a"/></linearGradient></defs><g class="cls-1"><g id="BACKGROUND"><rect class="cls-2" width="750" height="500"/><g class="cls-3"><circle class="cls-4" cx="463.22" cy="97.75" r="1.18"/><circle class="cls-4" cx="326.02" cy="141.15" r="1.18"/><circle class="cls-4" cx="481.63" cy="206.06" r="1.18"/><circle class="cls-4" cx="516.1" cy="262.17" r="1.18"/><path class="cls-4" d="M448,181.57a1.18,1.18,0,0,1-2.35,0,1.18,1.18,0,1,1,2.35,0Z"/><circle class="cls-4" cx="579.21" cy="171.28" r="1.18"/><path class="cls-4" d="M416.88,65.63a1.18,1.18,0,1,1-1.18-1.18A1.18,1.18,0,0,1,416.88,65.63Z"/><path class="cls-4" d="M341.46,87.46a1.18,1.18,0,1,1-1.18-1.17A1.18,1.18,0,0,1,341.46,87.46Z"/><circle class="cls-4" cx="302.33" cy="88.44" r="1.18"/><path class="cls-4" d="M282.68,154.41a1.18,1.18,0,1,1-1.17-1.18A1.17,1.17,0,0,1,282.68,154.41Z"/><circle class="cls-4" cx="305.83" cy="190.63" r="1.18"/><path class="cls-4" d="M222.31,277.49a1.18,1.18,0,0,1-2.35,0,1.18,1.18,0,1,1,2.35,0Z"/><path class="cls-4" d="M230.81,254.6a1.18,1.18,0,1,1-1.18-1.18A1.17,1.17,0,0,1,230.81,254.6Z"/><path class="cls-4" d="M182.94,383a1.18,1.18,0,1,1-1.18-1.18A1.17,1.17,0,0,1,182.94,383Z"/><path class="cls-4" d="M201.75,344.37a1.18,1.18,0,1,1-1.18-1.18A1.18,1.18,0,0,1,201.75,344.37Z"/><circle class="cls-4" cx="213.98" cy="453.68" r="1.18"/><path class="cls-4" d="M172.72,479.07a1.18,1.18,0,1,1-1.18-1.18A1.17,1.17,0,0,1,172.72,479.07Z"/><path class="cls-4" d="M377.22,467.11a1.18,1.18,0,1,1-2.35,0,1.18,1.18,0,0,1,2.35,0Z"/><path class="cls-4" d="M455.6,457.75a1.18,1.18,0,1,1-1.17-1.18A1.17,1.17,0,0,1,455.6,457.75Z"/><path class="cls-4" d="M473.59,411.63a1.18,1.18,0,1,1-1.18-1.17A1.18,1.18,0,0,1,473.59,411.63Z"/><path class="cls-4" d="M388.52,400.4a1.18,1.18,0,1,1-1.18-1.18A1.18,1.18,0,0,1,388.52,400.4Z"/><path class="cls-4" d="M380.91,372.84a1.18,1.18,0,0,1-2.35,0,1.18,1.18,0,1,1,2.35,0Z"/><path class="cls-4" d="M362.77,373.81a1.18,1.18,0,1,1-1.18-1.18A1.17,1.17,0,0,1,362.77,373.81Z"/><circle class="cls-4" cx="583.85" cy="387.89" r="1.18"/><circle class="cls-4" cx="534.8" cy="379.49" r="1.18"/><path class="cls-4" d="M588,341.61a1.18,1.18,0,1,1-1.18-1.18A1.18,1.18,0,0,1,588,341.61Z"/><circle class="cls-4" cx="600.15" cy="285.88" r="1.18"/><circle class="cls-4" cx="574.68" cy="267.88" r="1.18"/><circle class="cls-4" cx="585.53" cy="217.65" r="1.18"/><circle class="cls-4" cx="592.02" cy="217.67" r="1.18"/><circle class="cls-4" cx="450.81" cy="127.99" r="1.18"/><circle class="cls-4" cx="362.05" cy="165.83" r="1.18"/><circle class="cls-4" cx="423.03" cy="179.9" r="1.18"/><path class="cls-4" d="M214.86,181a1.18,1.18,0,1,1-1.17-1.17A1.17,1.17,0,0,1,214.86,181Z"/><circle class="cls-4" cx="177.8" cy="233.84" r="1.18"/><path class="cls-4" d="M164.84,273.59a1.18,1.18,0,0,1-2.35,0,1.18,1.18,0,1,1,2.35,0Z"/><path class="cls-4" d="M173.4,156.46a1.18,1.18,0,1,1-1.17-1.17A1.17,1.17,0,0,1,173.4,156.46Z"/><path class="cls-4" d="M180.11,65.05a1.18,1.18,0,1,1-1.18-1.18A1.17,1.17,0,0,1,180.11,65.05Z"/><circle class="cls-4" cx="211.1" cy="57.42" r="1.18"/><path class="cls-4" d="M364.1,51.51a1.18,1.18,0,0,1-2.35,0,1.18,1.18,0,1,1,2.35,0Z"/><path class="cls-4" d="M316.82,63.75a1.18,1.18,0,1,1-1.18-1.18A1.17,1.17,0,0,1,316.82,63.75Z"/><circle class="cls-4" cx="452.7" cy="49.58" r="1.18"/><path class="cls-4" d="M441.51,86.41a1.18,1.18,0,1,1-1.18-1.18A1.17,1.17,0,0,1,441.51,86.41Z"/><circle class="cls-4" cx="418.49" cy="125.16" r="1.18"/><path class="cls-4" d="M338.61,170.58a1.18,1.18,0,1,1-1.18-1.18A1.17,1.17,0,0,1,338.61,170.58Z"/><circle class="cls-4" cx="310.37" cy="187.27" r="1.18"/><circle class="cls-4" cx="269.3" cy="238.57" r="1.18"/><circle class="cls-4" cx="261.81" cy="263.28" r="1.18"/><circle class="cls-4" cx="269.37" cy="303" r="1.18"/><path class="cls-4" d="M282.86,333.24a1.18,1.18,0,1,1-2.35,0,1.18,1.18,0,0,1,2.35,0Z"/><circle class="cls-4" cx="346.58" cy="350.95" r="1.18"/><circle class="cls-4" cx="397.64" cy="358.52" r="1.18"/><path class="cls-4" d="M417.88,363.46a1.18,1.18,0,1,1-1.18-1.17A1.18,1.18,0,0,1,417.88,363.46Z"/><circle class="cls-4" cx="475.29" cy="345.62" r="1.18"/><path class="cls-4" d="M480.19,309.75a1.18,1.18,0,1,1-1.18-1.18A1.17,1.17,0,0,1,480.19,309.75Z"/><circle class="cls-4" cx="466.39" cy="241.54" r="1.18"/><path class="cls-4" d="M451.41,228.18a1.18,1.18,0,1,1-1.18-1.17A1.18,1.18,0,0,1,451.41,228.18Z"/><circle class="cls-4" cx="450.48" cy="199.73" r="1.18"/><path class="cls-4" d="M299.81,210.34a1.18,1.18,0,1,1-2.35,0,1.18,1.18,0,0,1,2.35,0Z"/><path class="cls-4" d="M294.24,230.25a1.18,1.18,0,1,1-1.18-1.18A1.17,1.17,0,0,1,294.24,230.25Z"/><path class="cls-4" d="M295.26,280.28a1.18,1.18,0,1,1-1.17-1.18A1.17,1.17,0,0,1,295.26,280.28Z"/><circle class="cls-4" cx="436.2" cy="332.29" r="1.18"/><path class="cls-4" d="M449.64,319a1.18,1.18,0,1,1-1.18-1.17A1.18,1.18,0,0,1,449.64,319Z"/><circle class="cls-4" cx="460.86" cy="310.39" r="1.18"/><path class="cls-4" d="M487.73,297.24a1.18,1.18,0,1,1-2.35,0,1.18,1.18,0,0,1,2.35,0Z"/><path class="cls-4" d="M503.6,272.69a1.18,1.18,0,1,1-1.17-1.17A1.17,1.17,0,0,1,503.6,272.69Z"/><circle class="cls-4" cx="508.38" cy="247.9" r="1.18"/><path class="cls-4" d="M511.69,233.49a1.18,1.18,0,1,1-1.17-1.17A1.17,1.17,0,0,1,511.69,233.49Z"/><path class="cls-4" d="M485.74,232.84a1.18,1.18,0,1,1-1.17-1.17A1.17,1.17,0,0,1,485.74,232.84Z"/><circle class="cls-4" cx="495.84" cy="205.67" r="1.18"/><path class="cls-4" d="M500.81,208.23a1.18,1.18,0,1,1-1.17-1.18A1.17,1.17,0,0,1,500.81,208.23Z"/><path class="cls-4" d="M532.76,262.15a1.18,1.18,0,1,1-1.18-1.18A1.18,1.18,0,0,1,532.76,262.15Z"/><circle class="cls-4" cx="518.13" cy="287.89" r="1.18"/><path class="cls-4" d="M517.25,286.42a1.18,1.18,0,1,1-1.17-1.18A1.17,1.17,0,0,1,517.25,286.42Z"/><circle class="cls-4" cx="480.97" cy="371.14" r="1.18"/></g><circle class="cls-4" cx="306.3" cy="130.99" r="1.18"/><path class="cls-4" d="M372.73,152.9a1.18,1.18,0,1,1-1.18-1.18A1.17,1.17,0,0,1,372.73,152.9Z"/><circle class="cls-4" cx="297.82" cy="179.29" r="1.18"/><path class="cls-4" d="M310.4,159.4a1.18,1.18,0,1,1-1.18-1.18A1.17,1.17,0,0,1,310.4,159.4Z"/><path class="cls-4" d="M440.57,189.6a1.18,1.18,0,1,1-1.18-1.18A1.17,1.17,0,0,1,440.57,189.6Z"/><circle class="cls-4" cx="294.14" cy="217.88" r="1.18"/><path class="cls-4" d="M290.65,260.19a1.18,1.18,0,1,1-1.18-1.18A1.17,1.17,0,0,1,290.65,260.19Z"/><path class="cls-4" d="M457.5,246.22a1.18,1.18,0,1,1-1.18-1.18A1.17,1.17,0,0,1,457.5,246.22Z"/><circle class="cls-4" cx="468.7" cy="213.13" r="1.18"/><path class="cls-4" d="M419.85,154.69a1.18,1.18,0,1,1-2.35,0,1.18,1.18,0,0,1,2.35,0Z"/><circle class="cls-4" cx="440.4" cy="120.68" r="1.18"/><circle class="cls-4" cx="352.64" cy="107.33" r="1.18"/><path class="cls-4" d="M353.81,129.23a1.18,1.18,0,1,1-2.35,0,1.18,1.18,0,0,1,2.35,0Z"/><circle class="cls-4" cx="511.99" cy="278.16" r="1.18"/><path class="cls-4" d="M494.29,342.22a1.18,1.18,0,1,1-1.18-1.18A1.18,1.18,0,0,1,494.29,342.22Z"/><circle class="cls-4" cx="495.01" cy="390.34" r="1.18"/><path class="cls-4" d="M411.45,430a1.18,1.18,0,1,1-1.18-1.18A1.18,1.18,0,0,1,411.45,430Z"/><circle class="cls-4" cx="374.23" cy="434.81" r="1.18"/><circle class="cls-4" cx="357.13" cy="403.59" r="1.18"/><circle class="cls-4" cx="397.09" cy="397.91" r="1.18"/><path class="cls-4" d="M390.73,376a1.18,1.18,0,1,1-1.18-1.18A1.18,1.18,0,0,1,390.73,376Z"/><circle class="cls-4" cx="372.25" cy="379.83" r="1.18"/><circle class="cls-4" cx="212.1" cy="339.42" r="1.18"/><circle class="cls-4" cx="238.58" cy="365.9" r="1.18"/><path class="cls-4" d="M319.84,339.42a1.18,1.18,0,1,1-1.18-1.17A1.18,1.18,0,0,1,319.84,339.42Z"/><circle class="cls-4" cx="287.57" cy="280.19" r="1.18"/><path class="cls-4" d="M233,278.15a1.18,1.18,0,1,1-1.17-1.18A1.17,1.17,0,0,1,233,278.15Z"/><path class="cls-4" d="M138.3,47.79a1.18,1.18,0,1,1-2.35,0,1.18,1.18,0,0,1,2.35,0Z"/><path class="cls-4" d="M203.56,69.7a1.18,1.18,0,1,1-1.18-1.18A1.18,1.18,0,0,1,203.56,69.7Z"/><circle class="cls-4" cx="128.65" cy="96.09" r="1.18"/><circle class="cls-4" cx="140.05" cy="76.2" r="1.18"/><path class="cls-4" d="M271.4,106.4a1.18,1.18,0,1,1-1.18-1.18A1.18,1.18,0,0,1,271.4,106.4Z"/><circle class="cls-4" cx="124.97" cy="134.68" r="1.18"/><circle class="cls-4" cx="120.3" cy="176.99" r="1.18"/><path class="cls-4" d="M288.33,163a1.18,1.18,0,1,1-1.18-1.18A1.18,1.18,0,0,1,288.33,163Z"/><path class="cls-4" d="M300.7,129.93a1.18,1.18,0,1,1-2.35,0,1.18,1.18,0,0,1,2.35,0Z"/><path class="cls-4" d="M250.68,71.5a1.18,1.18,0,1,1-1.18-1.18A1.17,1.17,0,0,1,250.68,71.5Z"/><path class="cls-4" d="M272.4,37.48a1.18,1.18,0,1,1-1.17-1.18A1.17,1.17,0,0,1,272.4,37.48Z"/><path class="cls-4" d="M184.64,24.14a1.18,1.18,0,0,1-2.35,0,1.18,1.18,0,1,1,2.35,0Z"/><path class="cls-4" d="M184.64,46a1.18,1.18,0,1,1-1.18-1.18A1.17,1.17,0,0,1,184.64,46Z"/><circle class="cls-4" cx="342.82" cy="194.97" r="1.18"/><path class="cls-4" d="M325.11,259a1.18,1.18,0,0,1-2.35,0,1.18,1.18,0,1,1,2.35,0Z"/><path class="cls-4" d="M327,307.14a1.18,1.18,0,1,1-2.35,0,1.18,1.18,0,0,1,2.35,0Z"/><circle class="cls-4" cx="241.1" cy="346.84" r="1.18"/><circle class="cls-4" cx="205.06" cy="351.61" r="1.18"/><path class="cls-4" d="M189.13,320.4a1.18,1.18,0,0,1-2.35,0,1.18,1.18,0,1,1,2.35,0Z"/><path class="cls-4" d="M229.1,314.71a1.18,1.18,0,1,1-1.18-1.17A1.18,1.18,0,0,1,229.1,314.71Z"/><path class="cls-4" d="M221.55,292.76a1.18,1.18,0,1,1-1.17-1.17A1.17,1.17,0,0,1,221.55,292.76Z"/><path class="cls-4" d="M204.26,296.63a1.18,1.18,0,1,1-1.18-1.18A1.18,1.18,0,0,1,204.26,296.63Z"/><path class="cls-4" d="M44.11,256.22A1.18,1.18,0,1,1,42.93,255,1.18,1.18,0,0,1,44.11,256.22Z"/><circle class="cls-4" cx="69.4" cy="282.7" r="1.18"/><path class="cls-4" d="M150.66,256.23a1.18,1.18,0,1,1-1.17-1.18A1.17,1.17,0,0,1,150.66,256.23Z"/><circle class="cls-4" cx="118.4" cy="197" r="1.18"/><path class="cls-4" d="M63.87,195a1.18,1.18,0,1,1-1.18-1.18A1.17,1.17,0,0,1,63.87,195Z"/><path class="cls-4" d="M487.48,163.05a1.18,1.18,0,1,1-1.17-1.17A1.17,1.17,0,0,1,487.48,163.05Z"/><path class="cls-4" d="M552.74,185a1.18,1.18,0,1,1-1.18-1.18A1.18,1.18,0,0,1,552.74,185Z"/><path class="cls-4" d="M479,211.35a1.18,1.18,0,1,1-1.17-1.18A1.17,1.17,0,0,1,479,211.35Z"/><path class="cls-4" d="M490.41,191.46a1.18,1.18,0,1,1-1.18-1.18A1.18,1.18,0,0,1,490.41,191.46Z"/><circle class="cls-4" cx="619.4" cy="221.66" r="1.18"/><path class="cls-4" d="M475.33,249.94a1.18,1.18,0,1,1-1.18-1.18A1.18,1.18,0,0,1,475.33,249.94Z"/><path class="cls-4" d="M470.66,292.25a1.18,1.18,0,1,1-1.18-1.18A1.18,1.18,0,0,1,470.66,292.25Z"/><path class="cls-4" d="M637.51,278.28a1.18,1.18,0,1,1-1.18-1.18A1.18,1.18,0,0,1,637.51,278.28Z"/><circle class="cls-4" cx="648.71" cy="245.19" r="1.18"/><circle class="cls-4" cx="598.68" cy="186.76" r="1.18"/><circle class="cls-4" cx="620.41" cy="152.74" r="1.18"/><path class="cls-4" d="M533.83,139.4a1.18,1.18,0,1,1-1.18-1.18A1.17,1.17,0,0,1,533.83,139.4Z"/><path class="cls-4" d="M533.82,161.3a1.18,1.18,0,1,1-1.18-1.18A1.17,1.17,0,0,1,533.82,161.3Z"/><circle class="cls-4" cx="692" cy="310.23" r="1.18"/><path class="cls-4" d="M674.3,374.28a1.18,1.18,0,1,1-1.18-1.18A1.17,1.17,0,0,1,674.3,374.28Z"/><circle class="cls-4" cx="675.02" cy="422.4" r="1.18"/><path class="cls-4" d="M591.46,462.1a1.18,1.18,0,1,1-2.35,0,1.18,1.18,0,0,1,2.35,0Z"/><path class="cls-4" d="M555.42,466.87a1.18,1.18,0,1,1-1.18-1.17A1.18,1.18,0,0,1,555.42,466.87Z"/><circle class="cls-4" cx="537.14" cy="435.66" r="1.18"/><circle class="cls-4" cx="577.1" cy="429.97" r="1.18"/><path class="cls-4" d="M570.74,408a1.18,1.18,0,1,1-1.18-1.17A1.18,1.18,0,0,1,570.74,408Z"/><circle class="cls-4" cx="552.27" cy="411.89" r="1.18"/><circle class="cls-4" cx="392.11" cy="371.48" r="1.18"/><path class="cls-4" d="M419.76,398a1.18,1.18,0,1,1-1.17-1.18A1.17,1.17,0,0,1,419.76,398Z"/><path class="cls-4" d="M499.85,371.48a1.18,1.18,0,1,1-1.18-1.17A1.18,1.18,0,0,1,499.85,371.48Z"/><circle class="cls-4" cx="467.58" cy="312.26" r="1.18"/><path class="cls-4" d="M413.05,310.21a1.18,1.18,0,0,1-2.35,0,1.18,1.18,0,1,1,2.35,0Z"/><path class="cls-4" d="M319.71,176.82a1.18,1.18,0,1,1-2.35,0,1.18,1.18,0,0,1,2.35,0Z"/><path class="cls-4" d="M344.54,154.78a1.18,1.18,0,1,1-1.18-1.17A1.18,1.18,0,0,1,344.54,154.78Z"/><circle class="cls-4" cx="326.33" cy="168.02" r="1.18"/><path class="cls-4" d="M384.08,147.25a1.18,1.18,0,1,1-1.18-1.17A1.18,1.18,0,0,1,384.08,147.25Z"/><path class="cls-4" d="M409.55,169.06a1.18,1.18,0,0,1-2.35,0,1.18,1.18,0,1,1,2.35,0Z"/><path class="cls-4" d="M316.1,118a1.18,1.18,0,1,1-1.17-1.17A1.17,1.17,0,0,1,316.1,118Z"/><circle class="cls-4" cx="260.23" cy="163.36" r="1.18"/><path class="cls-4" d="M482.78,431.6a1.18,1.18,0,1,1-1.18-1.18A1.18,1.18,0,0,1,482.78,431.6Z"/><circle class="cls-5" cx="105.18" cy="92.1" r="60.26"/><path class="cls-6" d="M750.73,0V197.48A163.89,163.89,0,0,1,549.74,0Z"/><circle class="cls-7" cx="159.19" cy="392.97" r="70.11"/><circle class="cls-8" cx="588.73" cy="418.03" r="35.29"/></g><g id="OBJECTS"><path class="cls-4" d="M245.5,327.41V292.66H167V268.35l75.95-112.92H274.2V268.35h19.53v24.31H274.2v34.75Zm1-59.06,1.71-84-53.72,84Z"/><g class="cls-9"><path class="cls-4" d="M534.78,327.41V292.66H456.27V268.35l75.94-112.92h31.26V268.35H583v24.31H563.47v34.75Zm1-59.06,1.7-84-53.72,84Z"/></g><g class="cls-9"><path class="cls-4" d="M439.62,243.2q0,41.4-17.16,64.82t-47.19,23.43q-30.4,0-47.31-23.67T311.05,241.3q0-42.45,17.09-66.18t47.5-23.72q30.76,0,47.37,23.78T439.62,243.2Zm-64.84,63.93q17.84,0,26.8-16.54t9-49.52q0-32-8.85-48.81t-25.83-16.78q-17.7,0-26.74,16.72t-9,49.34q0,31.66,9,48.63T374.78,307.13Z"/></g><path class="cls-4" d="M204.85,108.71a1.91,1.91,0,0,1-.48-1.39V93a1.94,1.94,0,0,1,.53-1.43,2.24,2.24,0,0,1,2.92,0,1.9,1.9,0,0,1,.53,1.43v12.93h6.55c1.24,0,1.87.55,1.87,1.64s-.63,1.61-1.87,1.61h-8.67A1.9,1.9,0,0,1,204.85,108.71Z"/><path class="cls-4" d="M220.86,108.59a5.63,5.63,0,0,1-2.33-2.28,7.71,7.71,0,0,1,0-6.92,5.6,5.6,0,0,1,2.33-2.27,8.15,8.15,0,0,1,7,0,5.6,5.6,0,0,1,2.33,2.27,7.71,7.71,0,0,1,0,6.92,5.63,5.63,0,0,1-2.33,2.28,8,8,0,0,1-7,0Zm6.31-5.74a4.21,4.21,0,0,0-.73-2.71,2.51,2.51,0,0,0-2.08-.89c-1.88,0-2.81,1.2-2.81,3.6s.93,3.61,2.81,3.61S227.17,105.25,227.17,102.85Z"/><path class="cls-4" d="M235.89,108.59a5.63,5.63,0,0,1-2.33-2.28,7.79,7.79,0,0,1,0-6.92,5.6,5.6,0,0,1,2.33-2.27,8.17,8.17,0,0,1,7,0,5.58,5.58,0,0,1,2.32,2.27,7.71,7.71,0,0,1,0,6.92,5.6,5.6,0,0,1-2.32,2.28,8,8,0,0,1-7,0Zm6.32-5.74a4.28,4.28,0,0,0-.73-2.71,2.53,2.53,0,0,0-2.09-.89q-2.8,0-2.81,3.6c0,2.4.94,3.61,2.81,3.61S242.21,105.25,242.21,102.85Z"/><path class="cls-4" d="M260.82,107.48a1.84,1.84,0,0,1-.53,1.28,1.62,1.62,0,0,1-1.21.56,1.76,1.76,0,0,1-1.23-.54l-5.6-5.19v3.91a1.67,1.67,0,0,1-.55,1.36,2,2,0,0,1-1.36.46,2.09,2.09,0,0,1-1.4-.46,1.7,1.7,0,0,1-.55-1.36V92.85a1.69,1.69,0,0,1,.55-1.35,2.09,2.09,0,0,1,1.4-.46,2,2,0,0,1,1.36.46,1.66,1.66,0,0,1,.55,1.35V102l5.12-5a1.72,1.72,0,0,1,2.5,0,1.67,1.67,0,0,1,.54,1.24,1.77,1.77,0,0,1-.59,1.25l-3.4,3.25,3.81,3.53A1.73,1.73,0,0,1,260.82,107.48Z"/><path class="cls-4" d="M270.34,108.88a1.66,1.66,0,0,1-.55-1.35V92.85a1.69,1.69,0,0,1,.55-1.35,2.08,2.08,0,0,1,1.39-.46,2,2,0,0,1,1.37.46,1.66,1.66,0,0,1,.55,1.35v14.68a1.63,1.63,0,0,1-.55,1.35,2,2,0,0,1-1.37.46A2.08,2.08,0,0,1,270.34,108.88Z"/><path class="cls-4" d="M277,93.81a1.81,1.81,0,0,1-.59-1.42A1.77,1.77,0,0,1,277,91a2.37,2.37,0,0,1,1.61-.51,2.34,2.34,0,0,1,1.6.52,1.75,1.75,0,0,1,.6,1.39,1.81,1.81,0,0,1-.59,1.42,2.71,2.71,0,0,1-3.22,0Zm.22,15.07a1.63,1.63,0,0,1-.55-1.35V98.2a1.67,1.67,0,0,1,.56-1.36,2.17,2.17,0,0,1,1.38-.46,2.1,2.1,0,0,1,1.37.46,1.67,1.67,0,0,1,.55,1.36v9.33a1.63,1.63,0,0,1-.55,1.35,2.3,2.3,0,0,1-2.76,0Z"/><path class="cls-4" d="M295.87,107.48a1.83,1.83,0,0,1-.52,1.28,1.64,1.64,0,0,1-1.22.56,1.76,1.76,0,0,1-1.23-.54l-5.59-5.19v3.91a1.7,1.7,0,0,1-.55,1.36,2.06,2.06,0,0,1-1.37.46,2.11,2.11,0,0,1-1.4-.46,1.7,1.7,0,0,1-.55-1.36V92.85A1.69,1.69,0,0,1,284,91.5a2.11,2.11,0,0,1,1.4-.46,2.06,2.06,0,0,1,1.37.46,1.69,1.69,0,0,1,.55,1.35V102l5.11-5a1.73,1.73,0,0,1,2.51,0,1.7,1.7,0,0,1,.53,1.24,1.73,1.73,0,0,1-.59,1.25l-3.4,3.25,3.81,3.53A1.69,1.69,0,0,1,295.87,107.48Z"/><path class="cls-4" d="M308.49,105.87a1.66,1.66,0,0,1,.32,1,1.39,1.39,0,0,1-.26.8,2.08,2.08,0,0,1-.71.63,9.35,9.35,0,0,1-2,.75,8.52,8.52,0,0,1-2.13.3,7.57,7.57,0,0,1-3.56-.8,5.49,5.49,0,0,1-2.34-2.26,7,7,0,0,1-.82-3.46,7.05,7.05,0,0,1,.79-3.4,5.85,5.85,0,0,1,2.2-2.32,6.2,6.2,0,0,1,3.2-.83,5.77,5.77,0,0,1,3,.76,5.13,5.13,0,0,1,2,2.14,7,7,0,0,1,.71,3.26,1.23,1.23,0,0,1-.26.86,1,1,0,0,1-.76.29H300.7a3.43,3.43,0,0,0,.92,2.19,3.08,3.08,0,0,0,2.13.68,4.48,4.48,0,0,0,1.32-.18,11.56,11.56,0,0,0,1.31-.49l.69-.27a2,2,0,0,1,.59-.11A1,1,0,0,1,308.49,105.87Zm-7-6.18a3.34,3.34,0,0,0-.8,2h4.94a3.33,3.33,0,0,0-.68-2,2.14,2.14,0,0,0-1.7-.69A2.3,2.3,0,0,0,301.5,99.69Z"/><path class="cls-4" d="M327.56,96.69a1.72,1.72,0,0,1,.91-.26,1.94,1.94,0,0,1,1.3.48,1.4,1.4,0,0,1,.56,1.13,1.72,1.72,0,0,1-.17.72l-6.88,14.11a1.85,1.85,0,0,1-.69.81,1.72,1.72,0,0,1-.92.27,1.92,1.92,0,0,1-1.26-.46,1.46,1.46,0,0,1-.53-1.13,1.71,1.71,0,0,1,.18-.77l1.68-3.5-4.55-9.33a1.79,1.79,0,0,1-.15-.69,1.48,1.48,0,0,1,.6-1.18,2.14,2.14,0,0,1,1.37-.48,1.74,1.74,0,0,1,.94.27,1.82,1.82,0,0,1,.69.8l3.17,6.9,3.1-6.9A1.62,1.62,0,0,1,327.56,96.69Z"/><path class="cls-4" d="M334.27,108.59a5.6,5.6,0,0,1-2.32-2.28,7.71,7.71,0,0,1,0-6.92,5.58,5.58,0,0,1,2.32-2.27,8.17,8.17,0,0,1,7,0,5.58,5.58,0,0,1,2.32,2.27,7.71,7.71,0,0,1,0,6.92,5.6,5.6,0,0,1-2.32,2.28,8,8,0,0,1-7,0Zm6.32-5.74a4.28,4.28,0,0,0-.73-2.71,2.53,2.53,0,0,0-2.09-.89q-2.81,0-2.81,3.6c0,2.4.94,3.61,2.81,3.61S340.59,105.25,340.59,102.85Z"/><path class="cls-4" d="M358.34,96.87a1.71,1.71,0,0,1,.53,1.33v9.38a1.61,1.61,0,0,1-.55,1.28,2.09,2.09,0,0,1-1.42.48,1.78,1.78,0,0,1-1.3-.46,1.57,1.57,0,0,1-.49-1.22v-.26a3.93,3.93,0,0,1-1.55,1.48,4.42,4.42,0,0,1-2.16.52,4.49,4.49,0,0,1-3.54-1.32,5.89,5.89,0,0,1-1.16-4V98.2a1.7,1.7,0,0,1,.52-1.33,2,2,0,0,1,1.42-.49,1.94,1.94,0,0,1,1.41.49,1.73,1.73,0,0,1,.51,1.33v6a2.49,2.49,0,0,0,.47,1.66,1.84,1.84,0,0,0,1.45.54,2.38,2.38,0,0,0,1.83-.77,2.9,2.9,0,0,0,.7-2V98.2a1.73,1.73,0,0,1,.51-1.33,1.94,1.94,0,0,1,1.41-.49A2,2,0,0,1,358.34,96.87Z"/><path class="cls-4" d="M365.23,91.77a3.18,3.18,0,0,1,.62,2.11,6.5,6.5,0,0,1-1.92,4.65,1,1,0,0,1-.79.36,1.11,1.11,0,0,1-.77-.3.9.9,0,0,1-.33-.7.93.93,0,0,1,.28-.66,4.53,4.53,0,0,0,1.12-1.92,2.13,2.13,0,0,1-1.4-.64,2,2,0,0,1-.54-1.43,2.21,2.21,0,0,1,.6-1.58,2.16,2.16,0,0,1,3.13.11Z"/><path class="cls-4" d="M377.19,96.73a1.53,1.53,0,0,1,.44,1.19,1.71,1.71,0,0,1-.4,1.25,2.44,2.44,0,0,1-1.46.51l-.77.08a2.9,2.9,0,0,0-2,.92,3,3,0,0,0-.63,2v4.88a1.63,1.63,0,0,1-.55,1.35,2,2,0,0,1-1.37.46,2.08,2.08,0,0,1-1.39-.46,1.63,1.63,0,0,1-.55-1.35V98.15a1.61,1.61,0,0,1,.56-1.31,2.13,2.13,0,0,1,1.36-.46,1.87,1.87,0,0,1,1.28.45,1.56,1.56,0,0,1,.51,1.24v.69a3.59,3.59,0,0,1,1.39-1.69,4.32,4.32,0,0,1,2-.66l.36,0A1.61,1.61,0,0,1,377.19,96.73Z"/><path class="cls-4" d="M389.38,105.87a1.61,1.61,0,0,1,.32,1,1.38,1.38,0,0,1-.25.8,2.12,2.12,0,0,1-.72.63,9.15,9.15,0,0,1-2,.75,8.44,8.44,0,0,1-2.12.3,7.61,7.61,0,0,1-3.57-.8,5.6,5.6,0,0,1-2.34-2.26,7.67,7.67,0,0,1,0-6.86,5.9,5.9,0,0,1,2.19-2.32,6.23,6.23,0,0,1,3.2-.83,5.83,5.83,0,0,1,3,.76,5.05,5.05,0,0,1,2,2.14,7,7,0,0,1,.72,3.26,1.23,1.23,0,0,1-.27.86,1,1,0,0,1-.75.29H381.6a3.38,3.38,0,0,0,.92,2.19,3,3,0,0,0,2.12.68,4.55,4.55,0,0,0,1.33-.18,11.46,11.46,0,0,0,1.3-.49l.69-.27a2,2,0,0,1,.59-.11A1,1,0,0,1,389.38,105.87Zm-7-6.18a3.34,3.34,0,0,0-.79,2h4.93a3.33,3.33,0,0,0-.68-2,2.12,2.12,0,0,0-1.7-.69A2.3,2.3,0,0,0,382.39,99.69Z"/><path class="cls-4" d="M399.79,108.88a1.63,1.63,0,0,1-.55-1.35V92.85a1.66,1.66,0,0,1,.55-1.35,2.3,2.3,0,0,1,2.76,0,1.69,1.69,0,0,1,.55,1.35v14.68a1.66,1.66,0,0,1-.55,1.35,2.3,2.3,0,0,1-2.76,0Z"/><path class="cls-4" d="M408.6,108.59a5.57,5.57,0,0,1-2.33-2.28,7.71,7.71,0,0,1,0-6.92,5.55,5.55,0,0,1,2.33-2.27,8.15,8.15,0,0,1,7,0,5.6,5.6,0,0,1,2.33,2.27,7.71,7.71,0,0,1,0,6.92,5.63,5.63,0,0,1-2.33,2.28,8,8,0,0,1-7,0Zm6.31-5.74a4.21,4.21,0,0,0-.73-2.71,2.51,2.51,0,0,0-2.08-.89c-1.88,0-2.81,1.2-2.81,3.6s.93,3.61,2.81,3.61S414.91,105.25,414.91,102.85Z"/><path class="cls-4" d="M423.14,109.14a6.08,6.08,0,0,1-2-.82,1.54,1.54,0,0,1-.58-.61,1.81,1.81,0,0,1-.21-.87,1.52,1.52,0,0,1,.33-1,1,1,0,0,1,.82-.39,2.29,2.29,0,0,1,.67.11l.69.27a9.28,9.28,0,0,0,1.4.53,6.87,6.87,0,0,0,1.72.19,3,3,0,0,0,1.39-.28.87.87,0,0,0,.5-.77.82.82,0,0,0-.22-.58,2.09,2.09,0,0,0-.81-.39c-.39-.12-1-.27-1.86-.44a7,7,0,0,1-3.27-1.3,3,3,0,0,1-1-2.43,3.3,3.3,0,0,1,.7-2.07,4.61,4.61,0,0,1,1.93-1.44,7,7,0,0,1,2.76-.53,8.13,8.13,0,0,1,2.15.28,7,7,0,0,1,1.87.79,1.59,1.59,0,0,1,.79,1.44,1.56,1.56,0,0,1-.33,1,1,1,0,0,1-.82.41,3.11,3.11,0,0,1-1.41-.46,7.24,7.24,0,0,0-1.16-.5,4.13,4.13,0,0,0-1.24-.17,2.24,2.24,0,0,0-1.25.3.91.91,0,0,0,.07,1.62,8,8,0,0,0,2.07.56,10.85,10.85,0,0,1,2.69.81,3.19,3.19,0,0,1,1.41,1.19,3.42,3.42,0,0,1,.43,1.81,3.37,3.37,0,0,1-1.5,2.89,6.68,6.68,0,0,1-4,1.08A12.64,12.64,0,0,1,423.14,109.14Z"/><path class="cls-4" d="M441.53,106.92a1.28,1.28,0,0,1,.35,1,1.25,1.25,0,0,1-.58,1.12,2.73,2.73,0,0,1-1.69.31l-.72,0q-4.47-.36-4.47-4.68V99.53h-1a2,2,0,0,1-1.28-.37,1.33,1.33,0,0,1-.44-1.07,1.35,1.35,0,0,1,.44-1.08,1.9,1.9,0,0,1,1.28-.37h1v-2a1.73,1.73,0,0,1,.52-1.33,2,2,0,0,1,1.42-.48,2,2,0,0,1,1.41.48,1.76,1.76,0,0,1,.51,1.33v2h1.79c1.16,0,1.74.48,1.74,1.45a1.33,1.33,0,0,1-.44,1.07,2,2,0,0,1-1.3.37h-1.79v5.34a1.66,1.66,0,0,0,.36,1.16,1.47,1.47,0,0,0,1.05.45l.71,0A1.8,1.8,0,0,1,441.53,106.92Z"/><path class="cls-4" d="M450.78,93.81a1.81,1.81,0,0,1-.59-1.42,1.77,1.77,0,0,1,.59-1.4,2.37,2.37,0,0,1,1.61-.51A2.34,2.34,0,0,1,454,91a1.75,1.75,0,0,1,.6,1.39,1.81,1.81,0,0,1-.59,1.42,2.71,2.71,0,0,1-3.22,0Zm.22,15.07a1.63,1.63,0,0,1-.55-1.35V98.2a1.67,1.67,0,0,1,.56-1.36,2.17,2.17,0,0,1,1.38-.46,2.1,2.1,0,0,1,1.37.46,1.67,1.67,0,0,1,.55,1.36v9.33a1.63,1.63,0,0,1-.55,1.35,2.3,2.3,0,0,1-2.76,0Z"/><path class="cls-4" d="M468.5,97.65a6.1,6.1,0,0,1,1.1,4v5.91a1.72,1.72,0,0,1-.53,1.33,2.31,2.31,0,0,1-2.82,0,1.75,1.75,0,0,1-.51-1.33V101.8a3,3,0,0,0-.47-1.86,1.76,1.76,0,0,0-1.47-.59,2.55,2.55,0,0,0-1.94.76,2.9,2.9,0,0,0-.72,2v5.37a1.72,1.72,0,0,1-.52,1.33,2,2,0,0,1-1.4.48,2,2,0,0,1-1.42-.48,1.72,1.72,0,0,1-.53-1.33V98.15a1.64,1.64,0,0,1,.55-1.28,2,2,0,0,1,1.42-.49,1.82,1.82,0,0,1,1.3.48,1.59,1.59,0,0,1,.49,1.21v.36a4.47,4.47,0,0,1,1.73-1.56,5.19,5.19,0,0,1,2.39-.54A4.11,4.11,0,0,1,468.5,97.65Z"/><path class="cls-4" d="M481.67,109.14a6,6,0,0,1-2-.82,1.5,1.5,0,0,1-.59-.61,1.81,1.81,0,0,1-.21-.87,1.47,1.47,0,0,1,.34-1,1,1,0,0,1,.81-.39,2.19,2.19,0,0,1,.67.11l.69.27a9.38,9.38,0,0,0,1.41.53,6.85,6.85,0,0,0,1.71.19,3,3,0,0,0,1.39-.28.87.87,0,0,0,.5-.77.78.78,0,0,0-.22-.58,2,2,0,0,0-.8-.39c-.4-.12-1-.27-1.87-.44a7,7,0,0,1-3.27-1.3,3,3,0,0,1-1-2.43,3.3,3.3,0,0,1,.7-2.07,4.68,4.68,0,0,1,1.93-1.44,7,7,0,0,1,2.77-.53,8.11,8.11,0,0,1,2.14.28,7,7,0,0,1,1.87.79,1.59,1.59,0,0,1,.79,1.44,1.56,1.56,0,0,1-.33,1,1,1,0,0,1-.82.41,3,3,0,0,1-1.4-.46,7.72,7.72,0,0,0-1.17-.5,4.13,4.13,0,0,0-1.24-.17,2.27,2.27,0,0,0-1.25.3.91.91,0,0,0,.08,1.62,7.8,7.8,0,0,0,2.07.56,10.89,10.89,0,0,1,2.68.81,3.19,3.19,0,0,1,1.41,1.19,3.7,3.7,0,0,1-1.06,4.7,6.7,6.7,0,0,1-4,1.08A12.58,12.58,0,0,1,481.67,109.14Z"/><path class="cls-4" d="M502.72,97.16a5.58,5.58,0,0,1,2,2.33,8,8,0,0,1,.7,3.44,7.81,7.81,0,0,1-.7,3.41,5.18,5.18,0,0,1-4.85,3.06,5,5,0,0,1-2.31-.53,3.86,3.86,0,0,1-1.6-1.47v4.83a1.58,1.58,0,0,1-.51,1.23,1.92,1.92,0,0,1-1.35.46,2.13,2.13,0,0,1-1.45-.48,1.62,1.62,0,0,1-.55-1.28v-14a1.73,1.73,0,0,1,.53-1.32,1.92,1.92,0,0,1,1.39-.5,1.9,1.9,0,0,1,1.38.5,1.76,1.76,0,0,1,.51,1.32v.2a3.94,3.94,0,0,1,1.61-1.52,4.94,4.94,0,0,1,2.35-.55A5.14,5.14,0,0,1,502.72,97.16Zm-1.91,8.39a4,4,0,0,0,.75-2.62,4.29,4.29,0,0,0-.75-2.7,2.48,2.48,0,0,0-2.09-1,2.53,2.53,0,0,0-2.1.93,4.27,4.27,0,0,0-.74,2.68,4.17,4.17,0,0,0,.74,2.64,2.84,2.84,0,0,0,4.19,0Z"/><path class="cls-4" d="M517.48,97.67a5.63,5.63,0,0,1,1.33,4.11v5.77a1.75,1.75,0,0,1-.48,1.32,1.85,1.85,0,0,1-1.36.47,1.77,1.77,0,0,1-1.31-.49,1.75,1.75,0,0,1-.5-1.3v-.17a3,3,0,0,1-1.28,1.48,4,4,0,0,1-2.1.54,5,5,0,0,1-2.31-.52,4,4,0,0,1-1.64-1.43,3.64,3.64,0,0,1-.6-2,3.18,3.18,0,0,1,.71-2.18,4.22,4.22,0,0,1,2.26-1.15,20,20,0,0,1,4.27-.35h.66v-.46a2.14,2.14,0,0,0-.47-1.56,2.11,2.11,0,0,0-1.57-.49,10.13,10.13,0,0,0-3.17.77,2.59,2.59,0,0,1-1,.28,1.12,1.12,0,0,1-.9-.4,1.55,1.55,0,0,1-.33-1,1.49,1.49,0,0,1,.23-.85,2.23,2.23,0,0,1,.74-.61,8.6,8.6,0,0,1,2.19-.77,11.76,11.76,0,0,1,2.54-.28A5.55,5.55,0,0,1,517.48,97.67Zm-3,8.31a2.77,2.77,0,0,0,.69-2v-.44h-.43a8.77,8.77,0,0,0-2.9.33,1.21,1.21,0,0,0-.83,1.21,1.52,1.52,0,0,0,.47,1.16,1.65,1.65,0,0,0,1.19.45A2.31,2.31,0,0,0,514.44,106Z"/><path class="cls-4" d="M524.11,108.6a5.46,5.46,0,0,1-2.24-2.25,7.78,7.78,0,0,1,0-6.89,5.72,5.72,0,0,1,2.34-2.31,7.13,7.13,0,0,1,3.48-.82,7.74,7.74,0,0,1,2.06.28,7,7,0,0,1,1.85.79,1.59,1.59,0,0,1,.79,1.44,1.75,1.75,0,0,1-.31,1.08,1,1,0,0,1-.81.42,1.64,1.64,0,0,1-.63-.11c-.2-.08-.46-.19-.78-.35a9.11,9.11,0,0,0-1-.43,2.85,2.85,0,0,0-1-.15,2.68,2.68,0,0,0-2.18.9,5,5,0,0,0,0,5.31,2.66,2.66,0,0,0,2.18.92,3,3,0,0,0,1-.14,7.06,7.06,0,0,0,1-.45c.32-.15.58-.27.76-.34a1.56,1.56,0,0,1,.62-.12,1,1,0,0,1,.8.44,1.82,1.82,0,0,1,.32,1.1,1.51,1.51,0,0,1-.79,1.4,6.71,6.71,0,0,1-1.89.79,8.78,8.78,0,0,1-2.25.29A7,7,0,0,1,524.11,108.6Z"/><path class="cls-4" d="M545.24,105.87a1.66,1.66,0,0,1,.32,1,1.39,1.39,0,0,1-.26.8,2.08,2.08,0,0,1-.71.63,9.35,9.35,0,0,1-2,.75,8.52,8.52,0,0,1-2.13.3,7.57,7.57,0,0,1-3.56-.8,5.49,5.49,0,0,1-2.34-2.26,7,7,0,0,1-.82-3.46,7.05,7.05,0,0,1,.79-3.4,5.85,5.85,0,0,1,2.2-2.32,6.2,6.2,0,0,1,3.2-.83,5.77,5.77,0,0,1,3,.76,5.13,5.13,0,0,1,2,2.14,7,7,0,0,1,.71,3.26,1.28,1.28,0,0,1-.26.86,1,1,0,0,1-.76.29h-7.16a3.43,3.43,0,0,0,.92,2.19,3.05,3.05,0,0,0,2.12.68,4.51,4.51,0,0,0,1.33-.18,11.56,11.56,0,0,0,1.31-.49l.69-.27a2,2,0,0,1,.59-.11A1,1,0,0,1,545.24,105.87Zm-7-6.18a3.4,3.4,0,0,0-.79,2h4.94a3.33,3.33,0,0,0-.68-2A2.14,2.14,0,0,0,540,99,2.34,2.34,0,0,0,538.24,99.69Z"/><path class="cls-10" d="M348.85,229.3s-2.68-8.15-1.82-9.31,12.71-6.32,27.81-9.52,15.83-2,17-1.13,2.59,10.1,2.56,12S348.85,229.3,348.85,229.3Z"/><path class="cls-11" d="M420.41,291.09l-1.05,2.31L412,309.55,405,325c-3.49-2.45-4.57-11.39-4.41-18.2a54.55,54.55,0,0,0-.77-11.32A15,15,0,0,1,394.7,291a27.21,27.21,0,0,1-2.07-3.21h0c-.45-.82-.68-1.35-.68-1.35-8.19.4-13.77-4.91-15.09-5.76s-3.8-.06-6.27,5.48c-2.22,5-7.84,7-8.95,7.36l-.18.06c-.24,1.34-.5,2.55-.76,3.64-2.09,8.83-4.64,10-4.64,10-.28,2.86,1.43,7,1.95,12.35a106.79,106.79,0,0,1,0,13.6l-7.37-4.58-14.42-9s-5.46-12.9-5.12-17.19a12,12,0,0,1,.73-3.26,15.55,15.55,0,0,1,1.39-2.83h0a12,12,0,0,1,1-1.4s0-.68,0-1.76c0-.48,0-1,.08-1.65a32.2,32.2,0,0,1,.63-4.54,8.6,8.6,0,0,1,.32-1.16,13.78,13.78,0,0,1,.84-1.9,15.64,15.64,0,0,1,1-1.56h0l0,0,0,0v0h0l0-.05a1,1,0,0,1,.08-.11.76.76,0,0,1,.08-.11l.28-.35a12.88,12.88,0,0,1,1.11-1.23h0s.32-1.13.76-2.75c.34-1.25.75-2.79,1.12-4.33.87-3.54.78-4.8,3-6.53s2.76-3.15,4.06-4.18h0l.06-.05c.76-.58,2.15-1.46,3.22-2.11h0l1.47-.89a14.09,14.09,0,0,1,.79-4.63,5.88,5.88,0,0,1-.63-1.5c-.22-.67-.35-1.28-.35-1.28-.37.25-.73.47-1.07.67h0c-3.82,2.17-6.52,1.43-6.52,1.43a15,15,0,0,1-3,.91,13.82,13.82,0,0,1-3.87.19A18.79,18.79,0,0,1,327,250l3.33-4.71,7.34-10.4a8.64,8.64,0,0,1,2.93,1h0a4.73,4.73,0,0,1,.6.42h0l.26.23a3,3,0,0,1,.62.78h0l0,.05h0a6.14,6.14,0,0,1,.1-.68,4.41,4.41,0,0,1,.43-1.26l.12-.2a2.85,2.85,0,0,1,.67-.76,2.07,2.07,0,0,1,.83-.4c0-.21,0-.42.07-.62,1.05-7.67,6-7.85,6-7.85,1-5.76,6.87-5.85,6.87-5.85s1.24.29,3.19.57h0a39.93,39.93,0,0,0,12.64-.07,17.45,17.45,0,0,0,9.71-5.39,11,11,0,0,0,1.05-1.35c4.83-1.12,8.56,5,8.56,5,2.77,0,5,1.85,6.25,3.22a12.88,12.88,0,0,1,1.19,1.49l.09-.12a8,8,0,0,1,1-1.06h0l0,0h0l.19-.16h0a10,10,0,0,1,1.79-1.11,10.92,10.92,0,0,1,2.79-.93l6.5,13.47,1.41,2.91a10.07,10.07,0,0,1-5.33,6.51,12.08,12.08,0,0,1-1.3.58,9,9,0,0,1-1,.3c-3.65.85-7.67-.78-10-2h0l-.08-.05-.06,0-.14-.08c-1-.53-1.58-.93-1.58-.93a12.77,12.77,0,0,1,.54,1.95h0c0,.13.05.27.07.39a23.18,23.18,0,0,1,.11,6,19.19,19.19,0,0,1,1.13,4.56,4.42,4.42,0,0,1-.41,2.92l0,.06a2.39,2.39,0,0,1,.37-.2h0a7.18,7.18,0,0,1,1.28-.43l.26-.06h0c.31-.06.67-.11,1.06-.15h0a13.65,13.65,0,0,1,5.63.83h0l.17.07.35.12c6,2.28,8.55,11.91,8.55,11.91a10.45,10.45,0,0,1,2.67,2.8,17.89,17.89,0,0,1,3.15,8.34C419.69,285.29,420.41,291.09,420.41,291.09Z"/><path class="cls-12" d="M337.82,255.31A18.79,18.79,0,0,1,327,250l3.33-4.71a13.66,13.66,0,0,0,7.12,4.94,10.43,10.43,0,0,0,3.32.3A16.47,16.47,0,0,1,337.82,255.31Z"/><path class="cls-13" d="M391.91,255.73l-5,7.59s-4.42,7.12-12.68,6.42-15.74-8.25-21.67-4.84S343.19,276,343.19,276l3.4-1s-6,4-7.06,6.47a1.14,1.14,0,0,0,.17,1.43l-3.61,1.06a15.64,15.64,0,0,1,1-1.56h0l0,0,0,0v0h0l0-.05a1,1,0,0,1,.08-.11.76.76,0,0,1,.08-.11l.28-.35a12.88,12.88,0,0,1,1.11-1.23h0s.32-1.13.76-2.75c.34-1.25.75-2.79,1.12-4.33.87-3.54.78-4.8,3-6.53s2.76-3.15,4.06-4.18h0l.06-.05c.76-.58,2.15-1.46,3.22-2.11h0l1.47-.89a14.09,14.09,0,0,1,.79-4.63,5.88,5.88,0,0,1-.63-1.5c-.22-.67-.35-1.28-.35-1.28-.37.25-.73.47-1.07.67h0c-3.82,2.17-6.52,1.43-6.52,1.43a15,15,0,0,1-3,.91,17.5,17.5,0,0,0,1.84-5.18,7.54,7.54,0,0,0,2.07-1.17,4.11,4.11,0,0,0,3.56,1.18c2.51-.17,7.42-2.4,7.4-5.09A17.66,17.66,0,0,0,368.61,257C378.62,260.11,387.75,257.28,391.91,255.73Z"/><path class="cls-14" d="M356.06,307.18c-.28,2.86,1.43,7,1.95,12.35a106.79,106.79,0,0,1,0,13.6l-7.37-4.58c1.71-4.69-.51-11.76-.74-17-.28-6.46,3.65-6.73,3.65-6.73a10.9,10.9,0,0,1,3.37-12.1,22.37,22.37,0,0,1,3.8,4.45C358.61,306,356.06,307.18,356.06,307.18Z"/><path class="cls-15" d="M395.73,280.5a25.77,25.77,0,0,0-3.1,7.24c-.45-.82-.68-1.35-.68-1.35-8.19.4-13.77-4.91-15.09-5.76s-3.8-.06-6.27,5.48c-2.22,5-7.84,7-8.95,7.36-.46-.6-1.25-1.58-2.29-2.72,1.94-1.92,3.55-4.65,6.21-8.88a14.48,14.48,0,0,1,9.95-7c3.43-.71,5,1.4,12.82,4.81A12.15,12.15,0,0,0,395.73,280.5Z"/><path class="cls-16" d="M412,309.55,405,325c-3.49-2.45-4.57-11.39-4.41-18.2a54.55,54.55,0,0,0-.77-11.32A15,15,0,0,1,394.7,291a61.16,61.16,0,0,1,6.69-10.84c-1.12,4.56,1.09,8.09,3.7,11.23a45.89,45.89,0,0,0,.58,13.09C406.55,308.37,409.84,309.35,412,309.55Z"/><path class="cls-17" d="M420.41,291.09l-1.05,2.31c-2-2.21-3.7-6.88-4.6-13.3-1.23-8.77-6.64-10-6.64-10,2.14-7-2.75-12.65-3.69-13.64l.35.12c6,2.28,8.55,11.91,8.55,11.91a10.45,10.45,0,0,1,2.67,2.8,17.89,17.89,0,0,1,3.15,8.34C419.69,285.29,420.41,291.09,420.41,291.09Z"/><path class="cls-18" d="M354.08,224.8c.53,3.13,5.75,3.24,5.75,3.24-3.25,1-5.95.73-9.31.16s-5.64,5.45-4.73,5.84,1.78,2,1.78,2c-2.61-1.24-3,0-2.17,2.84a24.41,24.41,0,0,1,.48,7.08c-.51-2.9-2.42-6.82-3.64-9.13a4.41,4.41,0,0,1,.43-1.26l.12-.2a2.85,2.85,0,0,1,.67-.76,2.07,2.07,0,0,1,.83-.4c0-.21,0-.42.07-.62,1.05-7.67,6-7.85,6-7.85,1-5.76,6.87-5.85,6.87-5.85s1.24.29,3.19.57C358,220.1,353.55,221.68,354.08,224.8Z"/><path class="cls-19" d="M399.91,223.14l-.12.6a10.59,10.59,0,0,0-8.37-3.07c-.61,2.73-5.31,3.21-5.31,3.21s3.65-2,3.18-4.33-6.47-4.45-6.47-4.45a.88.88,0,0,1-.05-.15,11,11,0,0,0,1.05-1.35c4.83-1.12,8.56,5,8.56,5,2.77,0,5,1.85,6.25,3.22a12.88,12.88,0,0,1,1.19,1.49Z"/><path class="cls-20" d="M338.1,287.23c-.11.26-3.69,8.88-6.29,11.91h0a15.55,15.55,0,0,1,1.39-2.83h0a12,12,0,0,1,1-1.4s0-.68,0-1.76c0-.48,0-1,.08-1.65A12.18,12.18,0,0,0,338.1,287.23Z"/><path class="cls-21" d="M403.35,239.15a26.63,26.63,0,0,0,2.67,4.47c-3.65.85-7.67-.78-10-2h0l-.08-.05-.06,0-.14-.08c-1-.53-1.58-.93-1.58-.93a12.77,12.77,0,0,1,.54,1.95h0c0,.13.05.27.07.39-4.7-6.52-6.78-15.08-6.88-15.49.15.41,3.15,8.85,10.4,11.13A13,13,0,0,0,403.35,239.15Z"/><path class="cls-21" d="M413.66,236.23a10.07,10.07,0,0,1-5.33,6.51,24.79,24.79,0,0,1-2.51-4.11,12.71,12.71,0,0,0,6.43-5.31Z"/><path class="cls-22" d="M397.26,255.79h0s-6.71,3.76-7.79,5-2,3.05-7.17,4.63a35.69,35.69,0,0,1-4.36,1c-4.49.76-10.08.79-14.66-1.79a13.07,13.07,0,0,0-5.86-4.86,45.85,45.85,0,0,0,6.07.94l.57,0c.3,0,.59,0,.85,0a2.94,2.94,0,0,1,1-.86,15.93,15.93,0,0,1,3.8-.22h.73c1.07,0,2.26-.05,3.5-.16s2.17-.22,3.14-.35l.73-.1c1.73-.25,3-.49,3.34-.51a2.63,2.63,0,0,1,1.81.68l.14.13.48-.17c.58-.21,1.63-.6,2.91-1.1l.55-.22,1.14-.46.4-.17h0c1-.4,2-.85,3-1.3l.31-.15a28.08,28.08,0,0,0,4.13-2.31c0,.24,0,.46,0,.66a3.68,3.68,0,0,1-.45,2.26l0,.06a2.39,2.39,0,0,1,.37-.2h0A7.18,7.18,0,0,1,397.26,255.79Z"/><path class="cls-23" d="M396.09,254.11c-1.65,1-7.62,4.53-12.41,5.74L383.6,262c0-.23-.06-2.63-5-1.85a76.09,76.09,0,0,1-10.22.86s1.39,6.11,9.54,5.46c-4.49.76-10.08.79-14.66-1.79a13.07,13.07,0,0,0-5.86-4.86,45.85,45.85,0,0,0,6.07.94l.57,0c.3,0,.59,0,.85,0a2.94,2.94,0,0,1,1-.86,15.93,15.93,0,0,1,3.8-.22h.73c1.07,0,2.26-.05,3.5-.16s2.17-.22,3.14-.35l.73-.1c1.73-.25,3-.49,3.34-.51a2.63,2.63,0,0,1,1.81.68l.14.13.48-.17c.58-.21,1.63-.6,2.91-1.1l.55-.22,1.14-.46.4-.17h0c1-.4,2-.85,3-1.3l.31-.15a28.08,28.08,0,0,0,4.13-2.31C396.07,253.69,396.08,253.91,396.09,254.11Z"/><path class="cls-24" d="M370.49,259.64v6.56l-.74-6.55Z"/><path class="cls-24" d="M377.86,259l-.28,6.69-.45-6.59Z"/><path class="cls-24" d="M364.06,260.75l-.38,2.75-.19-2.78Z"/><path class="cls-24" d="M383.31,264.06c0-1.9-.2-3.87-.3-4.86l.14.13.48-.17A19.38,19.38,0,0,1,383.31,264.06Z"/><path class="cls-24" d="M387.09,257.84l-.29,4.09-.26-3.87Z"/><path class="cls-24" d="M388.63,257.21l-.2,3-.2-2.86Z"/><path class="cls-24" d="M391.92,255.76l-.16,2.35-.15-2.2Z"/><path class="cls-25" d="M368.18,267c-3.41,1-7.43-6.92-14-6.31a21.64,21.64,0,0,0-6.42,1.9l.06-.05c.76-.58,2.15-1.46,3.22-2.11h0a12.83,12.83,0,0,1,5.75-.7C361.54,260,364.83,266.59,368.18,267Z"/><path class="cls-25" d="M404.25,256.4c-9.28-1.16-18.06,8.1-18.06,8.1,3.82-4.94,7.19-7.15,9.45-8.13l.33-.14h0a11.84,11.84,0,0,1,1.54-.49h0a4.91,4.91,0,0,1,1.06-.15h0A13.65,13.65,0,0,1,404.25,256.4Z"/><polygon class="cls-25" points="337.07 282.34 337.07 282.34 337.07 282.34 337.07 282.34"/><path class="cls-25" d="M346.59,275a24.48,24.48,0,0,0-9.48,7.34,13.24,13.24,0,0,1,1.64-1.91s.32-1.13.76-2.75A36.27,36.27,0,0,1,346.59,275Z"/><path class="cls-25" d="M336.16,291.15a18.53,18.53,0,0,1-3,5.16,12,12,0,0,1,1-1.4s0-.68,0-1.76A6.55,6.55,0,0,0,336.16,291.15Z"/><path class="cls-26" d="M400.94,222.08c-.35.33-3.33,3.33-2.42,12.33,0,0-1.9-6.74.11-12.64a12.88,12.88,0,0,1,1.19,1.49A7.42,7.42,0,0,1,400.94,222.08Z"/><path class="cls-25" d="M401,222.07h0Z"/><path class="cls-25" d="M342.12,237.42a7.22,7.22,0,0,0-.88-1A3.26,3.26,0,0,1,342.12,237.42Z"/><path class="cls-25" d="M345.88,245.91c-1.44-4.64-2.77-7.13-3.74-8.45h0a5.14,5.14,0,0,1,.53-1.94A35.08,35.08,0,0,1,345.88,245.91Z"/><path class="cls-25" d="M347.54,235.52a4.17,4.17,0,0,0-4.08-1,2.07,2.07,0,0,1,.83-.4c0-.21,0-.42.07-.62A5,5,0,0,1,347.54,235.52Z"/><path class="cls-25" d="M356.67,249a39.21,39.21,0,0,1-4,4.42c-.22-.67-.35-1.28-.35-1.28C351.94,252.36,356.67,249,356.67,249Z"/><path class="cls-25" d="M394.2,240.56a12.77,12.77,0,0,1,.54,1.95,14.91,14.91,0,0,1-2.85-5.19,10.22,10.22,0,0,0,3.89,4.17C394.79,241,394.2,240.56,394.2,240.56Z"/><path class="cls-27" d="M361.26,252.49l1.5,2.23c-2.4,1.9-6.65,4.4-9,4.72s-3.8-.06-4.06-1.46c-.19-1.07,1.71-2.9,2.62-3.72.29-.26.49-.41.49-.41l.48,1s-2.78,2.86-.91,3.2l.19,0c2.24.18,8.61-5.82,8.61-5.82"/><path class="cls-28" d="M352.38,258.09h0s-1.71.14-1.64-1.13a6.47,6.47,0,0,1,1.58-2.7c.29-.26.49-.41.49-.41l.48,1S350.51,257.75,352.38,258.09Z"/><path class="cls-27" d="M399.93,250.22a7,7,0,0,1-2.41,2c-3,1.69-9.15.3-9.15.3l-.69-3.27a16.88,16.88,0,0,0,7.87,1.84,7.41,7.41,0,0,0,2.1-.41c1.35-.5,1.6-1.33,1.22-1.87-.53-.76-3.92-.16-3.92-.16l.08-2.74a15.24,15.24,0,0,1,3,.48,3.34,3.34,0,0,1,1.88,1.08A2.3,2.3,0,0,1,399.93,250.22Z"/><path class="cls-28" d="M399.93,250.22a3.32,3.32,0,0,1-2.28.43c2.57-.77,1-3.35.35-4.29a3.34,3.34,0,0,1,1.88,1.08A2.3,2.3,0,0,1,399.93,250.22Z"/><path class="cls-29" d="M355.37,217.25s-4.66,2.09-4.11,12.48,9.14,15.82,9.14,15.82l.15,2.2s-6.63-2.07-10.36-10.51-.82-18.92,5-21.05Z"/><path class="cls-30" d="M383.6,210.14s6,2.28,8.61,10.48-2.06,13.89-6.71,17.53l1.5,3.53s8.2-5,9-13.73-5.26-16.87-11.33-20.25Z"/><path class="cls-31" d="M388.63,253.9c0,.47-4.16,1.19-5.76,1.48a176.41,176.41,0,0,1-19.8,2.47.53.53,0,0,1-.54-.36A93.46,93.46,0,0,1,359,241.36c-.2-1.62-.37-3.26-.5-4.91a1.09,1.09,0,0,1,.78-1.13,95.41,95.41,0,0,1,26-3.86,1.1,1.1,0,0,1,1.07.85C387.76,238.61,388.86,250.41,388.63,253.9Z"/><path class="cls-32" d="M388.37,252.49c0,.48-4.15,1.19-5.75,1.49a179.07,179.07,0,0,1-19.8,2.47.53.53,0,0,1-.54-.37A91.52,91.52,0,0,1,358.77,240c-.21-1.63-.38-3.27-.51-4.91a1.08,1.08,0,0,1,.79-1.13,95.76,95.76,0,0,1,26-3.87,1.09,1.09,0,0,1,1.06.86C387.51,237.2,388.61,249,388.37,252.49Z"/><path class="cls-33" d="M382.62,254a176.57,176.57,0,0,1-19.53,2.45.86.86,0,0,1-.89-.61A92.37,92.37,0,0,1,358.77,240C362.2,245.89,369.75,255.33,382.62,254Z"/><path class="cls-34" d="M362,238.33s1.42,9.23,2.88,14.5l1.88-.28s-1.58-9.22-2-14.88Z"/><path class="cls-35" d="M369.59,236.7s1.32,10,2.6,14.84l2.19-.3s-1.59-9.38-2-15Z"/><path class="cls-36" d="M366.25,238.67s.39,3.45.87,5.79l1.88-.29-.87-5.79A12.27,12.27,0,0,0,366.25,238.67Z"/><path class="cls-37" d="M382.17,238a1.66,1.66,0,1,1-1.77-1.54A1.66,1.66,0,0,1,382.17,238Z"/><path class="cls-38" d="M383.28,245a1.65,1.65,0,1,1-1.77-1.54A1.66,1.66,0,0,1,383.28,245Z"/><path class="cls-39" d="M386.63,224.56A3.39,3.39,0,1,1,383,221.4,3.4,3.4,0,0,1,386.63,224.56Z"/><path class="cls-40" d="M357.71,233c1.54-.35,5.31-1.11,9.42-2a1,1,0,0,0,.79-1.33l-.78-2.59a.8.8,0,0,0-.91-.63c-1.86.31-6.67.63-9.64,1.62-.37.12-.77.21-.55,1.42a22,22,0,0,0,.73,3A.79.79,0,0,0,357.71,233Z"/><path class="cls-41" d="M355.37,217.25A16.05,16.05,0,0,0,357,221s16.16,7.43,28.74-7.34a20,20,0,0,0-1.91-4.92S376.25,221.17,355.37,217.25Z"/><path class="cls-42" d="M349.23,202.37s-3.19,1.8-3.65,2.15c-1,.74,2.86,11.51,4.27,11.56a19.24,19.24,0,0,0,3.72-1Z"/><path class="cls-43" d="M348.19,205.6a.63.63,0,0,1-.59.67.61.61,0,0,1-.67-.58.63.63,0,0,1,1.26-.09Z"/><path class="cls-44" d="M381.69,192s3.63-.47,4.2-.47c1.24,0,4.6,10.94,3.49,11.83a19.39,19.39,0,0,1-3.58,1.42Z"/><path class="cls-43" d="M384.45,194a.63.63,0,1,0,.19-.87A.64.64,0,0,0,384.45,194Z"/><path class="cls-45" d="M357.52,187.32l-.39-1.3a14.7,14.7,0,0,1,9-2.82l.75,1.69Z"/><path class="cls-46" d="M386.21,206.8l-7.91,2.55L354.5,217c-9.22-10-7-26.23,5.14-31.18.57-.23,1.13-.43,1.69-.6h0C374.72,181,387.29,191.56,386.21,206.8Z"/><path class="cls-47" d="M378.3,209.35,354.5,217c-9.22-10-7-26.23,5.14-31.18.57-.23,1.13-.43,1.69-.6-8.15,3.38-8.87,8.84-1.59,6.6a24.52,24.52,0,0,1,12.5-.82Z"/><path class="cls-48" d="M386.21,206.8a19.52,19.52,0,0,1-14.31,12.68c-11.52,2.68-17.4-2.45-17.4-2.45Z"/><path class="cls-49" d="M386.21,206.8a24.21,24.21,0,0,1-6.88,7c-5.1,3.49-13.2,6.38-24.83,3.23-5.06-9.51-2.13-19.12,5-23.7a16.26,16.26,0,0,1,1.69-.94C370,188.08,383.27,191.51,386.21,206.8Z"/><path class="cls-50" d="M379.33,213.8c-5.1,3.49-13.2,6.38-24.83,3.23-5.06-9.51-2.13-19.12,5-23.7-.91,2.24-2.11,6.75-1.11,13.63,1.49,10.33,8.64,13.42,20.92,6.84Z"/><path class="cls-51" d="M366.09,192.37s9.86-1.69,15.36,7.38a1.61,1.61,0,0,1-.44,2.15h0a1.61,1.61,0,0,1-2.33-.52A18.63,18.63,0,0,0,366.09,192.37Z"/><path class="cls-52" d="M383.08,204a1.26,1.26,0,1,1-2.19,1.26,1.26,1.26,0,0,1,2.19-1.26Z"/><path class="cls-53" d="M403.44,277.63a18.72,18.72,0,0,1-2.05,2.48h0A61.16,61.16,0,0,0,394.7,291a27.21,27.21,0,0,1-2.07-3.21h0a25.77,25.77,0,0,1,3.1-7.24A28.78,28.78,0,0,0,403.44,277.63Z"/><path class="cls-54" d="M416,271.3a23.21,23.21,0,0,0-14.61,8.81,13.51,13.51,0,0,0,1.76-2.15,29.86,29.86,0,0,1-7.42,2.54,29.67,29.67,0,0,1,3-4.05c5.42-6.22,14.63-7.95,14.63-7.95A10.45,10.45,0,0,1,416,271.3Z"/><path class="cls-53" d="M361.64,293.47l-.18.06c-.24,1.34-.5,2.55-.76,3.64a22.37,22.37,0,0,0-3.8-4.45c.22-.19.45-.35.67-.51a11.82,11.82,0,0,0,1.78-1.46C360.39,291.89,361.18,292.87,361.64,293.47Z"/><path class="cls-55" d="M359.35,290.75a11.82,11.82,0,0,1-1.78,1.46c-.22.16-.45.32-.67.51a32.75,32.75,0,0,0-6.24-4.46,21.41,21.41,0,0,0-15.41-2.46,13.78,13.78,0,0,1,.84-1.9,15.64,15.64,0,0,1,1-1.56h0l0,0,0,0v0h0l0-.05a1,1,0,0,1,.08-.11.76.76,0,0,1,.08-.11l.28-.35c.55-.08,1.19-.16,1.9-.2a21,21,0,0,1,10.15,1.7A32.32,32.32,0,0,1,359.35,290.75Z"/><path class="cls-53" d="M408.33,242.74a12.08,12.08,0,0,1-1.3.58,9,9,0,0,1-1,.3,26.63,26.63,0,0,1-2.67-4.47,10.5,10.5,0,0,0,2.47-.52A24.79,24.79,0,0,0,408.33,242.74Z"/><path class="cls-56" d="M405.82,238.63a10.5,10.5,0,0,1-2.47.52,29.44,29.44,0,0,1-2.18-17.26h0a10,10,0,0,1,1.79-1.11,31.44,31.44,0,0,0,1.67,15.12C405,236.9,405.42,237.81,405.82,238.63Z"/><path class="cls-53" d="M343.53,249.94a17.5,17.5,0,0,1-1.84,5.18,13.82,13.82,0,0,1-3.87.19,16.47,16.47,0,0,0,3-4.74A9.72,9.72,0,0,0,343.53,249.94Z"/><path class="cls-57" d="M343.53,249.94a9.72,9.72,0,0,1-2.73.63c2.31-5.64,1.26-11.61.7-13.93a3,3,0,0,1,.62.78h0l0,.05h0a5.14,5.14,0,0,1,.53-1.94l.12-.2C344.34,241.73,344.21,246.53,343.53,249.94Z"/><path class="cls-58" d="M357.82,232.33c1.55-.35,5.49-1.25,9.42-2a.79.79,0,0,0,.63-.95l-.61-3a.81.81,0,0,0-.92-.63,77,77,0,0,0-9.66,2.15.8.8,0,0,0-.53.89,22,22,0,0,0,.73,3A.79.79,0,0,0,357.82,232.33Z"/><path class="cls-59" d="M332.66,249a12.62,12.62,0,0,1-4.5.87,12,12,0,0,1-5.32-1.15,1.51,1.51,0,0,1-.62.56h0a6.56,6.56,0,0,1-4,.4c-4-.52-5.4-2.64-5.35-4.22a1.29,1.29,0,0,1,.68-1h0a8.86,8.86,0,0,1,3.61-.82c1.1-.07,1.4-.41.87-1.16l-.09-.11c-.67-.65-2.87-.68-4.12-1.34a4.53,4.53,0,0,1-2-4.13c0-.86.79-1.35,1.83-1.51a6.56,6.56,0,0,1,3.48.51c2.12,1,2.88.59,3-.52.05-.79-1.58-1.86-3.07-2.88-.61-.43-1.2-.84-1.64-1.22-1.51-1.32-.59-4.07,2.06-4.57a2,2,0,0,1,.78,0h0c2.08.4,3,4,4.2,3.46s.35-1.77-1.52-3.69c-.24-.26-.5-.53-.74-.83-1.63-1.93-3.05-4.56-1.22-5.92a1.88,1.88,0,0,1,1.52-.29c2.32.42,5.62,3.91,7.55,8.21a20.41,20.41,0,0,0,1.67,3.13c.73,1,1.07.9,1.2.74a.34.34,0,0,0,.08-.12c.5-.75.81-5.51,1.08-8.53,0-.49.1-1,.17-1.42.37-2.33,1.15-4.09,2.59-4.46a3.1,3.1,0,0,1,.7-.1c1.25,0,1.91,1,2.21,3.38a10,10,0,0,1,.05,1.72c-.13,2-.81,3.87-.78,6.23.05,3,1.85,6.2,2.43,10.11S338,246.92,332.66,249Z"/><path class="cls-60" d="M323.35,223.89c-.2,1.7-2,1.83-3.25,1.72-.18-.21-.36-.42-.53-.65-1.37-1.83-2.32-4.05-.69-5.27a1.88,1.88,0,0,1,1.52-.29c.5.61,1.51,1.39,2.22,2.32A3,3,0,0,1,323.35,223.89Z"/><path class="cls-61" d="M320.15,230.28a2.8,2.8,0,0,1-3.19,2.18c-.51-.36-1-.71-1.42-1l-.22-.18c-1.51-1.32-.59-4.07,2.06-4.57a2,2,0,0,1,.78,0h0a12.78,12.78,0,0,1,1.54,2h0A2.24,2.24,0,0,1,320.15,230.28Z"/><path class="cls-62" d="M318.77,242.38a2.55,2.55,0,0,1-.88,0l-1.47-.36a12.14,12.14,0,0,1-2.65-1,4.53,4.53,0,0,1-2-4.13c0-.86.79-1.35,1.83-1.51a11.37,11.37,0,0,0,2.94,2c.29.11.6.23.9.37,1.22.55,2.41,1.33,2.59,2.08C320.23,240.7,320.17,242.13,318.77,242.38Z"/><path class="cls-63" d="M322.22,249.3h0a6,6,0,0,1-3.49.46l-.56-.06c-4-.52-5.4-2.64-5.35-4.22a1.29,1.29,0,0,1,.68-1h0c.09,0,1.69-.63,5.47,1l.33.14C322.93,247.07,323.81,248.15,322.22,249.3Z"/><path class="cls-64" d="M328.29,241.81c-.1-.2-3.11-6,1.33-11.07.73,1,1.07.9,1.2.74l.1.2S326.75,237.65,328.29,241.81Z"/><path class="cls-65" d="M332.66,249a12.62,12.62,0,0,1-4.5.87c9.69-2.21,8.47-11.28,7.31-14.1a17.5,17.5,0,0,1,.09-12.49c1.28-3.46.43-5.57-.12-6.45,1.25,0,1.91,1,2.21,3.38a10,10,0,0,1,.05,1.72c-.13,2-.81,3.87-.78,6.23.05,3,1.85,6.2,2.43,10.11S338,246.92,332.66,249Z"/><path class="cls-66" d="M337.7,222a5.6,5.6,0,0,1-5.55-.54c.37-2.33,1.15-4.09,2.59-4.46,1.7-.43,2.56.46,2.91,3.28A10,10,0,0,1,337.7,222Z"/><path class="cls-67" d="M323.35,223.89c-.2,1.7-3.38,2.53-3.78,1.07.32-3.13,2.1-3.36,3.05-3.24A3,3,0,0,1,323.35,223.89Z"/><path class="cls-68" d="M320.15,230.28c-.07,2.52-3.67,2.85-4.61,1.14a2.58,2.58,0,0,1,.41-2.6c1.56-2,3.66-.25,3.75-.18h0A3,3,0,0,1,320.15,230.28Z"/><path class="cls-69" d="M318.77,242.38a2.55,2.55,0,0,1-.88,0l-1.47-.36a4.24,4.24,0,0,1,1-4.28c1.22.55,2.41,1.33,2.59,2.08C320.23,240.7,320.17,242.13,318.77,242.38Z"/><path class="cls-70" d="M322.22,249.3h0a6,6,0,0,1-3.49.46,3.37,3.37,0,0,1-.42-2.6,3,3,0,0,1,1-1.65C322.93,247.07,323.81,248.15,322.22,249.3Z"/><path class="cls-71" d="M411.91,238.1a12.58,12.58,0,0,0,4.58,0,12.11,12.11,0,0,0,5-2.12,1.48,1.48,0,0,0,.71.43h0a6.56,6.56,0,0,0,4-.37c3.82-1.25,4.81-3.59,4.47-5.14a1.29,1.29,0,0,0-.86-.9h0a8.72,8.72,0,0,0-3.7-.14c-1.1.13-1.45-.14-1.07-1a.75.75,0,0,1,.07-.12c.53-.77,2.69-1.2,3.79-2.09a4.52,4.52,0,0,0,1.22-4.43c-.18-.84-1-1.18-2.07-1.14a6.57,6.57,0,0,0-3.33,1.15c-1.9,1.34-2.72,1.12-3,0-.21-.77,1.2-2.12,2.47-3.41a18,18,0,0,0,1.39-1.5c1.24-1.58-.17-4.11-2.87-4.1a2.07,2.07,0,0,0-.77.14h0c-2,.78-2.17,4.44-3.48,4.18-1.47-.31-.68-1.67.8-3.91.19-.3.39-.61.58-1,1.24-2.2,2.15-5,.1-6a1.9,1.9,0,0,0-1.55,0c-2.2.85-4.8,4.89-5.9,9.47a19.26,19.26,0,0,1-1.06,3.39c-.52,1.15-.88,1.08-1,1a.29.29,0,0,1-.09-.1c-.64-.64-1.82-5.26-2.65-8.18-.13-.48-.28-.93-.43-1.36-.81-2.23-1.9-3.82-3.37-3.91a4.11,4.11,0,0,0-.72,0c-1.23.21-1.69,1.32-1.54,3.74a9.78,9.78,0,0,0,.27,1.69c.51,2,1.52,3.66,1.92,6,.52,3-.66,6.43-.5,10.38S406.23,237,411.91,238.1Z"/><path class="cls-72" d="M416.38,211.68c.51,1.63,2.35,1.41,3.52,1.08.14-.24.27-.48.39-.74,1-2.06,1.53-4.41-.29-5.3a1.9,1.9,0,0,0-1.55,0c-.38.7-1.23,1.65-1.75,2.69A3.06,3.06,0,0,0,416.38,211.68Z"/><path class="cls-73" d="M420.71,217.35a2.79,2.79,0,0,0,3.54,1.55c.44-.44.87-.88,1.2-1.28.07-.07.13-.15.19-.22,1.24-1.58-.17-4.11-2.87-4.1a2.07,2.07,0,0,0-.77.14h0a12.54,12.54,0,0,0-1.15,2.22h0A2.26,2.26,0,0,0,420.71,217.35Z"/><path class="cls-74" d="M424.32,229a2.9,2.9,0,0,0,.86-.21l1.37-.63a11.71,11.71,0,0,0,2.42-1.46,4.52,4.52,0,0,0,1.22-4.43c-.18-.84-1-1.18-2.07-1.14a11.93,11.93,0,0,1-2.53,2.48,9.33,9.33,0,0,0-.81.53c-1.1.77-2.13,1.76-2.16,2.53C422.57,227.61,422.9,229,424.32,229Z"/><path class="cls-75" d="M422.22,236.43h0a5.94,5.94,0,0,0,3.51-.2c.17,0,.35-.1.54-.17,3.82-1.25,4.81-3.59,4.47-5.14a1.29,1.29,0,0,0-.86-.9h0c-.1,0-1.78-.31-5.2,1.95l-.3.2C421.1,234.37,420.44,235.6,422.22,236.43Z"/><path class="cls-76" d="M414.86,230.2c.07-.21,1.94-6.49-3.37-10.63-.52,1.15-.88,1.08-1,1l-.06.21S415.6,225.82,414.86,230.2Z"/><path class="cls-77" d="M411.91,238.1a12.58,12.58,0,0,0,4.58,0c-9.93-.37-10.41-9.52-9.8-12.5a17.52,17.52,0,0,0-2.42-12.26c-1.89-3.16-1.45-5.39-1.08-6.36-1.23.21-1.69,1.32-1.54,3.74a9.78,9.78,0,0,0,.27,1.69c.51,2,1.52,3.66,1.92,6,.52,3-.66,6.43-.5,10.38S406.23,237,411.91,238.1Z"/><path class="cls-78" d="M401.92,212.43a5.61,5.61,0,0,0,5.36-1.55c-.81-2.23-1.9-3.82-3.37-3.91-1.76-.1-2.44.93-2.26,3.77A9.78,9.78,0,0,0,401.92,212.43Z"/><path class="cls-79" d="M416.38,211.68c.51,1.63,3.79,1.85,3.91.34-.9-3-2.68-2.91-3.59-2.62A3.06,3.06,0,0,0,416.38,211.68Z"/><path class="cls-80" d="M420.71,217.35c.54,2.47,4.15,2.13,4.74.27a2.56,2.56,0,0,0-.87-2.48c-1.91-1.63-3.66.44-3.73.52h0A3,3,0,0,0,420.71,217.35Z"/><path class="cls-81" d="M424.32,229a2.9,2.9,0,0,0,.86-.21l1.37-.63a4.25,4.25,0,0,0-1.77-4c-1.1.77-2.13,1.76-2.16,2.53C422.57,227.61,422.9,229,424.32,229Z"/><path class="cls-82" d="M422.22,236.43h0a5.94,5.94,0,0,0,3.51-.2,3.35,3.35,0,0,0-.07-2.63,2.91,2.91,0,0,0-1.29-1.43C421.1,234.37,420.44,235.6,422.22,236.43Z"/><path class="cls-25" d="M403.67,325.56s-1.38-4.55-1.07-6.94,14-35.73,31.87-35.68Z"/><path class="cls-83" d="M407.89,337.08s-4-3.19-4.36-13.69,21-47,34-39.4Z"/><path class="cls-84" d="M440.9,297.08c0,.43,0,.86,0,1.31a64.74,64.74,0,0,1-.66,7.05c-.06.42-.12.84-.2,1.26-.35,2.18-.82,4.46-1.43,6.82-.1.4-.21.81-.32,1.22a83.87,83.87,0,0,1-2.67,8.09c-.15.39-.3.78-.46,1.18-.94,2.33-2,4.7-3.24,7.09-.19.38-.39.76-.59,1.14-1.09,2-2.28,4.1-3.59,6.15l-.33.51h0l-.81.45c-9.47,5-20.88-1.49-20.92-6.24V333a11.3,11.3,0,0,1,.17-1.27c.27-1.51.85-3.89,1.66-6.75.12-.39.23-.8.36-1.21.66-2.26,1.45-4.77,2.34-7.36.14-.4.28-.79.41-1.19.94-2.67,2-5.38,3.05-8l.49-1.17c1-2.26,2-4.41,3-6.33.2-.38.41-.76.62-1.13s.51-.86.76-1.27a52.31,52.31,0,0,1,3.29-4.74l.85-1.06a31.66,31.66,0,0,1,6.51-6.09c.49-.32,1-.62,1.46-.87,2.59-1.41,5-1.78,6.86-1,.93.37,1.76,1.72,2.37,3.84.13.45.24.92.35,1.43A39.28,39.28,0,0,1,440.9,297.08Z"/><path class="cls-85" d="M440.23,288.79l-11-3.38c.49-.32,1-.62,1.46-.87l9.23,2.82C440,287.81,440.12,288.28,440.23,288.79Z"/><path class="cls-85" d="M440.9,297.08c0,.43,0,.86,0,1.31l-19-5.83.85-1.06Z"/><path class="cls-85" d="M440.21,305.44c-.06.42-.12.84-.2,1.26l-22.85-7c.2-.38.41-.76.62-1.13Z"/><path class="cls-85" d="M438.58,313.52c-.1.4-.21.81-.32,1.22l-24.62-7.54.49-1.17Z"/><path class="cls-85" d="M435.59,322.83c-.15.39-.3.78-.46,1.18l-24.95-7.64c.14-.4.28-.79.41-1.19Z"/><path class="cls-85" d="M431.89,331.1c-.19.38-.39.76-.59,1.14l-23.82-7.3c.12-.39.23-.8.36-1.21Z"/><path class="cls-85" d="M427.71,338.39l-.33.51h0l-.81.45L405.65,333a11.3,11.3,0,0,1,.17-1.27Z"/><path class="cls-25" d="M360.3,334.37s-1.78-4.41-3.53-6.07-33.34-19-47.21-7.75Z"/><path class="cls-86" d="M364.25,346s1.1-5-5.2-13.39-45.9-23.41-51.22-9.28Z"/><path class="cls-87" d="M313.44,335.59c.27.33.55.67.85,1a64.46,64.46,0,0,0,4.94,5.08l.94.86q2.47,2.21,5.4,4.4l1,.74a81.78,81.78,0,0,0,7.16,4.62l1.1.63q3.3,1.84,7,3.48l1.18.52c2.13.91,4.35,1.76,6.66,2.53l.57.19h0c.31,0,.61-.09.91-.15,10.51-2.06,15.31-14.27,12.36-18l-.1-.12a10.57,10.57,0,0,0-.93-.89c-1.16-1-3.1-2.49-5.53-4.2l-1-.72c-1.94-1.34-4.13-2.8-6.45-4.25-.35-.23-.71-.45-1.07-.67-2.4-1.49-4.91-2.95-7.38-4.29-.37-.21-.75-.41-1.12-.6-2.18-1.15-4.32-2.19-6.33-3l-1.19-.49-1.39-.51a53.53,53.53,0,0,0-5.54-1.62c-.45-.11-.9-.2-1.33-.29a31.23,31.23,0,0,0-8.89-.65c-.59.06-1.15.13-1.68.23-2.9.54-5,1.75-6,3.53-.49.87-.29,2.44.57,4.47.18.43.39.87.63,1.33A38.53,38.53,0,0,0,313.44,335.59Z"/><path class="cls-85" d="M308.76,328.72l6.46-9.56c-.59.06-1.15.13-1.68.23l-5.41,8C308.31,327.82,308.52,328.26,308.76,328.72Z"/><path class="cls-85" d="M313.44,335.59c.27.33.55.67.85,1l11.15-16.49c-.45-.11-.9-.2-1.33-.29Z"/><path class="cls-85" d="M319.23,341.67l.94.86,13.39-19.81-1.19-.49Z"/><path class="cls-85" d="M325.57,346.93l1,.74L341,326.35c-.37-.21-.75-.41-1.12-.6Z"/><path class="cls-85" d="M333.75,352.29l1.1.63,14.61-21.61c-.35-.23-.71-.45-1.07-.67Z"/><path class="cls-85" d="M341.82,356.4l1.18.52L357,336.28l-1-.72Z"/><path class="cls-85" d="M349.66,359.45l.57.19h0c.31,0,.61-.09.91-.15l12.26-18.12a10.57,10.57,0,0,0-.93-.89Z"/><path class="cls-88" d="M440.23,288.79c-.11-.51-.22-1-.35-1.43-.61-2.12-1.44-3.47-2.37-3.84a5.65,5.65,0,0,0-2.11-.38,8,8,0,0,0-1-.15l0-.05h-.63a9.38,9.38,0,0,0-2.54.33c-4,.85-7.69,3.26-11.06,6.44-.24-2.05-.71-6.1-1.09-10.08A17.89,17.89,0,0,0,416,271.3a10.45,10.45,0,0,0-2.67-2.8s-2.55-9.63-8.55-11.91l-.35-.12-.17-.07h0a13.65,13.65,0,0,0-5.63-.83h0a4.91,4.91,0,0,0-1.06.15h0l-.26.06a7.18,7.18,0,0,0-1.28.43h0l-.33.14,0,0,0-.05h0l0,0h0l0-.06v0l0-.07v0l0-.09h0c0-.14.09-.31.13-.51v0s0-.09,0-.13v-.06s0-.09,0-.13V255s0-.1,0-.15v-.07a.86.86,0,0,0,0-.16v-.3c0-.16,0-.33,0-.52s0-.23,0-.36-.05-.44-.09-.69a6.13,6.13,0,0,0,1.56-.57,7,7,0,0,0,2.41-2,2.3,2.3,0,0,0-.05-2.78,3.34,3.34,0,0,0-1.88-1.08,14.83,14.83,0,0,0-2.94-.48,20.07,20.07,0,0,0-.25-3c0-.12,0-.26-.07-.39h0a12.77,12.77,0,0,0-.54-1.95s.59.4,1.58.93l.14.08.06,0,.08.05h0c2.29,1.19,6.31,2.82,10,2a9,9,0,0,0,1-.3,12.08,12.08,0,0,0,1.3-.58,10.34,10.34,0,0,0,4.57-4.5,12.74,12.74,0,0,0,3.59-.12,12.11,12.11,0,0,0,5-2.12,1.48,1.48,0,0,0,.71.43h0l.12,0h0l.11,0h.05l.1,0h.06l.11,0h.07l.11,0h1l.56-.07h0l.3-.05h.07l.25-.06.09,0,.24-.06.11,0,.15,0,.12,0h.05l.37-.12c3.82-1.25,4.81-3.59,4.47-5.14a1.29,1.29,0,0,0-.86-.9h0a8.72,8.72,0,0,0-3.7-.14c-1.1.13-1.45-.14-1.07-1a.75.75,0,0,1,.07-.12l1.37-.63a11.71,11.71,0,0,0,2.42-1.46,4.52,4.52,0,0,0,1.22-4.43c-.18-.84-1-1.18-2.07-1.14a6.57,6.57,0,0,0-3.33,1.15c-1.9,1.34-2.72,1.12-3,0-.21-.77,1.2-2.12,2.47-3.41l.09-.08a2.08,2.08,0,0,0,1.11-1.2l0,0a1.63,1.63,0,0,0,.17-.2c1.24-1.58-.17-4.11-2.87-4.1a2.07,2.07,0,0,0-.77.14h0c-2,.78-2.17,4.44-3.48,4.18-1.47-.31-.68-1.67.8-3.91.19-.3.39-.61.58-1l.05-.09a.93.93,0,0,0,.34-.65h0a1.3,1.3,0,0,1,.08-.17l0,0c0-.05.05-.1.07-.16l0,0,.07-.16,0,0c.07-.16.13-.32.19-.49l0-.07,0-.12,0-.1s0-.07,0-.11l0-.1,0-.1,0-.11,0-.1a.36.36,0,0,0,0-.1l0-.11s0-.07,0-.1,0-.07,0-.1,0-.07,0-.11,0-.06,0-.09a1.1,1.1,0,0,1,0-.18s0-.07,0-.1,0-.07,0-.11V209a.34.34,0,0,0,0-.1v-.19s0-.06,0-.09v-.09a3225414726918.6,3225414726918.6,0,0,0,0-.18s0-.06,0-.09a.29.29,0,0,0,0-.09s0-.05,0-.08l0-.09s0,0,0-.08l0-.1-.05-.12a.2.2,0,0,0,0-.08.43.43,0,0,0,0-.07l0-.08-.05-.07-.05-.07,0-.07-.06-.06-.06-.06a.23.23,0,0,0-.07-.07l-.06-.05a.27.27,0,0,0-.08-.07l-.06-.05-.1-.06-.06,0-.17-.09a1.9,1.9,0,0,0-1.55,0c-2.2.85-4.8,4.89-5.9,9.47a19.26,19.26,0,0,1-1.06,3.39c-.52,1.15-.88,1.08-1,1a.29.29,0,0,1-.09-.1c-.64-.64-1.82-5.26-2.65-8.18-.13-.48-.28-.93-.43-1.36-.81-2.23-1.9-3.82-3.37-3.91h-.73l-.19,0h0l-.17.06,0,0-.14.07h0l-.14.1,0,0-.13.11,0,0-.1.12,0,0a1.3,1.3,0,0,0-.1.15l0,0a.89.89,0,0,0-.08.17l0,0c0,.07-.05.13-.07.2v0l-.05.2s0,0,0,.06,0,.16-.05.24v.07l0,.27v.06c0,.08,0,.17,0,.27v.86c0,.13,0,.26,0,.4a9.78,9.78,0,0,0,.27,1.69c.51,2,1.52,3.66,1.92,6a10.15,10.15,0,0,1,.13,1.93c-.32.12-.66.26-1,.43a10,10,0,0,0-1.79,1.11h0l-.19.16h0l0,0h0l-.28.26-.09.09-.18.17-.14.15-.12.13a1.56,1.56,0,0,0-.16.2l-.06.06-.09.12a12.88,12.88,0,0,0-1.19-1.49,10.56,10.56,0,0,0-4.08-2.83c-.16-.4-.34-.78-.52-1.17-.5-3.38-1.41-7.84-2.2-8.43s-1.33-1.27-5.8-.82l-.38-.25a12.07,12.07,0,0,0,.56-1.47c.05-.72.07-1.44.06-2.14a15.79,15.79,0,0,0,3.11-1.27c1.11-.89-2.25-11.82-3.49-11.83-.44,0-2.69.28-3.7.4a18.41,18.41,0,0,0-15.59-7.64l-.5-1.12a14.7,14.7,0,0,0-9,2.82l.28.93a17.82,17.82,0,0,0-8.59,15.65c-.87.5-2.88,1.65-3.24,1.92-1,.74,2.86,11.51,4.27,11.56a14.5,14.5,0,0,0,3.18-.82c.34.45.68.88,1.06,1.31-4.09,1.58-6.67,2.89-7.06,3.42-.53.71.28,4.08,1,6.56-1.43.95-3.09,2.91-3.65,7,0,.2-.05.41-.07.62a2.07,2.07,0,0,0-.83.4,2.85,2.85,0,0,0-.67.76l-.12.2-.12.24s0,0,0,.06l-.09.23,0,0-.09.3,0,.06-.06.29v.06c0,.08,0,.16-.05.24a.19.19,0,0,1,0,.08c0,.11,0,.22,0,.34h0l0-.05h0l0,0,0,0,0,0,0,0,0-.06,0,0-.06-.08,0,0a1.47,1.47,0,0,1-.1-.13l0,0-.09-.1-.09-.08,0,0,0,0-.08-.07-.16-.14h0a4.73,4.73,0,0,0-.6-.42h0a8.25,8.25,0,0,0-2-.84c-.75-2.55-1.68-4.8-1.72-7,0-2.36.65-4.19.78-6.23a10,10,0,0,0-.05-1.72l-.06-.39v-.07l-.06-.34v-.08c0-.1,0-.21-.07-.31v0a2,2,0,0,0-.07-.26v-.06c0-.09-.06-.18-.08-.26l0-.06-.09-.23,0-.05-.09-.19,0,0-.1-.18,0,0c0-.05-.08-.11-.12-.15l0,0-.12-.13,0,0-.12-.1,0,0-.14-.09,0,0-.16-.07h0l-.15,0h0l-.18,0h-.62l-.09,0h-.07l-.17,0c-1.44.37-2.22,2.13-2.59,4.46-.07.46-.13.93-.17,1.42-.27,3-.58,7.78-1.08,8.53a.41.41,0,0,1-.07.12c-.14.16-.48.29-1.21-.74a20.41,20.41,0,0,1-1.67-3.13c-1.93-4.3-5.23-7.79-7.55-8.21a1.88,1.88,0,0,0-1.52.29.64.64,0,0,0-.15.13l-.06,0-.08.09,0,.06a.46.46,0,0,0-.07.07l-.05.07-.06.08a.43.43,0,0,0,0,.07l-.05.07a.3.3,0,0,1,0,.08l0,.08,0,.07,0,.09a.19.19,0,0,1,0,.07l0,.1s0,.08,0,.12,0,.07,0,.11,0,0,0,.08a.28.28,0,0,1,0,.09v.26s0,.06,0,.09a.28.28,0,0,0,0,.09.38.38,0,0,0,0,.1s0,.06,0,.09,0,.06,0,.09,0,.06,0,.09l0,.1a.29.29,0,0,0,0,.09l0,.11,0,.09a1.09,1.09,0,0,0,.05.17l0,.09a.42.42,0,0,0,0,.1l0,.1.05.09a.3.3,0,0,0,0,.1l0,.1.05.1,0,.09.05.1a.41.41,0,0,0,.05.09l.05.1a.41.41,0,0,1,.05.09l.06.11,0,.07c.09.15.18.3.28.44l0,0,.1.14,0,0,.1.14,0,0,.1.15h0a.94.94,0,0,0,.46.57.27.27,0,0,0,.07.08c.24.3.5.57.74.83,1.87,1.92,2.9,3.12,1.52,3.69s-2.12-3.06-4.2-3.46h0a2,2,0,0,0-.78,0c-2.65.5-3.57,3.25-2.06,4.57l.2.17h0a2.09,2.09,0,0,0,1.32,1l.1.07c1.49,1,3.12,2.09,3.07,2.88-.09,1.11-.85,1.48-3,.52a6.56,6.56,0,0,0-3.48-.51c-1,.16-1.81.65-1.83,1.51a4.53,4.53,0,0,0,2,4.13,12.14,12.14,0,0,0,2.65,1l1.47.36.09.11c.53.75.23,1.09-.87,1.16a8.86,8.86,0,0,0-3.61.82h0a1.29,1.29,0,0,0-.68,1c-.05,1.58,1.36,3.7,5.35,4.22l.38,0H320a4.86,4.86,0,0,0,.56,0h.06l.19,0h.07l.16,0,.07,0,.14,0h.08l.12,0,.07,0,.11,0,.06,0,.11,0,.06,0,.09,0,0,0,.1-.05h0l.12-.07h0a1.51,1.51,0,0,0,.62-.56,11.66,11.66,0,0,0,4.32,1.12L327,250a18.79,18.79,0,0,0,10.79,5.27,13.82,13.82,0,0,0,3.87-.19,15,15,0,0,0,3-.91s2.7.74,6.52-1.43h0c.34-.2.7-.42,1.07-.67,0,0,.13.61.35,1.28,0,.16.1.31.15.47h0l-.08.06-.13.11-.28.24c-.91.82-2.81,2.65-2.62,3.72s1.18,1.59,2.77,1.56l-1.44.87h0c-1.07.65-2.46,1.53-3.22,2.11l-.06.05h0c-1.3,1-1.85,2.47-4.06,4.18s-2.17,3-3,6.53c-.37,1.54-.78,3.08-1.12,4.33-.44,1.62-.76,2.75-.76,2.75a13.49,13.49,0,0,0-1.52,1.74l0,.06,0,0-.06.09,0,0h0a15.64,15.64,0,0,0-1,1.56,13.78,13.78,0,0,0-.84,1.9,8.6,8.6,0,0,0-.32,1.16,32.2,32.2,0,0,0-.63,4.54c0,.61-.07,1.17-.08,1.65,0,1.08,0,1.76,0,1.76a12,12,0,0,0-1,1.4h0a15.55,15.55,0,0,0-1.39,2.83,12,12,0,0,0-.73,3.26c-.3,3.76,3.87,14.15,4.9,16.65-8.23-2.41-17.24-3.5-23.74-.22a9.69,9.69,0,0,0-2.18,1.33l-.5.39.06,0a8.93,8.93,0,0,0-.66.72,5.68,5.68,0,0,0-1.4,1.63c-.49.87-.29,2.44.57,4.47.18.43.39.87.63,1.33a38.53,38.53,0,0,0,4.68,6.87c.27.33.55.67.85,1a64.46,64.46,0,0,0,4.94,5.08l.94.86q2.47,2.21,5.4,4.4l1,.74a81.78,81.78,0,0,0,7.16,4.62l1.1.63q3.3,1.84,7,3.48l1.18.52c2.13.91,4.35,1.76,6.66,2.53l.57.19h0c.31,0,.61-.09.91-.15,7.68-1.5,12.31-8.43,13.1-13.51,0,0,0-.11,0-.33a6.73,6.73,0,0,0-.31-3.34,24.31,24.31,0,0,0-3.68-7.94,32.38,32.38,0,0,0-2.16-4.29,87.29,87.29,0,0,0-.13-10.55c-.52-5.34-2.23-9.49-1.95-12.35,0,0,2.55-1.18,4.64-10,.26-1.09.52-2.3.76-3.64l.18-.06c1.11-.35,6.73-2.37,8.95-7.36,2.47-5.54,4.94-6.34,6.27-5.48s6.9,6.16,15.09,5.76c0,0,.23.53.68,1.35h0A27.21,27.21,0,0,0,394.7,291a15,15,0,0,0,5.14,4.55,54.55,54.55,0,0,1,.77,11.32c-.12,5.13.46,11.45,2.24,15.31a34.33,34.33,0,0,0,.82,3.43,24.2,24.2,0,0,0,2.13,8.5,6.66,6.66,0,0,0,1.85,2.79l.24.23c3.8,3.45,11.76,5.94,18.68,2.28l.81-.45h0l.33-.51c1.31-2.05,2.5-4.11,3.59-6.15.2-.38.4-.76.59-1.14,1.22-2.39,2.3-4.76,3.24-7.09.16-.4.31-.79.46-1.18a83.87,83.87,0,0,0,2.67-8.09c.11-.41.22-.82.32-1.22.61-2.36,1.08-4.64,1.43-6.82.08-.42.14-.84.2-1.26a64.74,64.74,0,0,0,.66-7.05c0-.45,0-.88,0-1.31A39.28,39.28,0,0,0,440.23,288.79Zm-103.08-6.56h0v0Zm15.42-24.12-.19,0a1.13,1.13,0,0,1-.41-.16.77.77,0,0,1-.2-.26.85.85,0,0,1,0-.23,2,2,0,0,1,.24-.8l.16-.28c.12-.19.25-.38.38-.55a1.13,1.13,0,0,1,.1-.13l.18-.23c.28-.34.5-.56.5-.56A14.39,14.39,0,0,0,352.57,258.11Zm42.38-9.5h0s3.39-.6,3.92.16c.38.54.13,1.37-1.22,1.87a7.13,7.13,0,0,1-2,.4c-.17-.65-.39-1.36-.68-2.16A2.21,2.21,0,0,0,395,248.61Z"/><path class="cls-89" d="M440.23,288.79c-.11-.51-.22-1-.35-1.43-.61-2.12-1.44-3.47-2.37-3.84a5.65,5.65,0,0,0-2.11-.38,8,8,0,0,0-1-.15l0-.05h-.63a9.38,9.38,0,0,0-2.54.33c-4,.85-7.69,3.26-11.06,6.44-.24-2.05-.71-6.1-1.09-10.08A17.89,17.89,0,0,0,416,271.3a10.45,10.45,0,0,0-2.67-2.8s-2.55-9.63-8.55-11.91l-.35-.12-.17-.07h0a13.65,13.65,0,0,0-5.63-.83h0a4.91,4.91,0,0,0-1.06.15h0l-.26.06a7.18,7.18,0,0,0-1.28.43h0l-.33.14,0,0,0-.05h0l0,0h0l0-.06v0l0-.07v0l0-.09h0c0-.14.09-.31.13-.51v0s0-.09,0-.13v-.06s0-.09,0-.13V255s0-.1,0-.15v-.07a.86.86,0,0,0,0-.16v-.3c0-.16,0-.33,0-.52s0-.23,0-.36-.05-.44-.09-.69a6.13,6.13,0,0,0,1.56-.57,7,7,0,0,0,2.41-2,2.3,2.3,0,0,0-.05-2.78,3.34,3.34,0,0,0-1.88-1.08,14.83,14.83,0,0,0-2.94-.48,20.07,20.07,0,0,0-.25-3c0-.12,0-.26-.07-.39h0a12.77,12.77,0,0,0-.54-1.95s.59.4,1.58.93l.14.08.06,0,.08.05h0c2.29,1.19,6.31,2.82,10,2a9,9,0,0,0,1-.3,12.08,12.08,0,0,0,1.3-.58,10.34,10.34,0,0,0,4.57-4.5,12.74,12.74,0,0,0,3.59-.12,12.11,12.11,0,0,0,5-2.12,1.48,1.48,0,0,0,.71.43h0l.12,0h0l.11,0h.05l.1,0h.06l.11,0h.07l.11,0h1l.56-.07h0l.3-.05h.07l.25-.06.09,0,.24-.06.11,0,.15,0,.12,0h.05l.37-.12c3.82-1.25,4.81-3.59,4.47-5.14a1.29,1.29,0,0,0-.86-.9h0a8.72,8.72,0,0,0-3.7-.14c-1.1.13-1.45-.14-1.07-1a.75.75,0,0,1,.07-.12l1.37-.63a11.71,11.71,0,0,0,2.42-1.46,4.52,4.52,0,0,0,1.22-4.43c-.18-.84-1-1.18-2.07-1.14a6.57,6.57,0,0,0-3.33,1.15c-1.9,1.34-2.72,1.12-3,0-.21-.77,1.2-2.12,2.47-3.41l.09-.08a2.08,2.08,0,0,0,1.11-1.2l0,0a1.63,1.63,0,0,0,.17-.2c1.24-1.58-.17-4.11-2.87-4.1a2.07,2.07,0,0,0-.77.14h0c-2,.78-2.17,4.44-3.48,4.18-1.47-.31-.68-1.67.8-3.91.19-.3.39-.61.58-1l.05-.09a.93.93,0,0,0,.34-.65h0a1.3,1.3,0,0,1,.08-.17l0,0c0-.05.05-.1.07-.16l0,0,.07-.16,0,0c.07-.16.13-.32.19-.49l0-.07,0-.12,0-.1s0-.07,0-.11l0-.1,0-.1,0-.11,0-.1a.36.36,0,0,0,0-.1l0-.11s0-.07,0-.1,0-.07,0-.1,0-.07,0-.11,0-.06,0-.09a1.1,1.1,0,0,1,0-.18s0-.07,0-.1,0-.07,0-.11V209a.34.34,0,0,0,0-.1v-.19s0-.06,0-.09v-.09a3225414726918.6,3225414726918.6,0,0,0,0-.18s0-.06,0-.09a.29.29,0,0,0,0-.09s0-.05,0-.08l0-.09s0,0,0-.08l0-.1-.05-.12a.2.2,0,0,0,0-.08.43.43,0,0,0,0-.07l0-.08-.05-.07-.05-.07,0-.07-.06-.06-.06-.06a.23.23,0,0,0-.07-.07l-.06-.05a.27.27,0,0,0-.08-.07l-.06-.05-.1-.06-.06,0-.17-.09a1.9,1.9,0,0,0-1.55,0c-2.2.85-4.8,4.89-5.9,9.47a19.26,19.26,0,0,1-1.06,3.39c-.52,1.15-.88,1.08-1,1a.29.29,0,0,1-.09-.1c-.64-.64-1.82-5.26-2.65-8.18-.13-.48-.28-.93-.43-1.36-.81-2.23-1.9-3.82-3.37-3.91h-.73l-.19,0h0l-.17.06,0,0-.14.07h0l-.14.1,0,0-.13.11,0,0-.1.12,0,0a1.3,1.3,0,0,0-.1.15l0,0a.89.89,0,0,0-.08.17l0,0c0,.07-.05.13-.07.2v0l-.05.2s0,0,0,.06,0,.16-.05.24v.07l0,.27v.06c0,.08,0,.17,0,.27v.86c0,.13,0,.26,0,.4a9.78,9.78,0,0,0,.27,1.69c.51,2,1.52,3.66,1.92,6a10.15,10.15,0,0,1,.13,1.93c-.32.12-.66.26-1,.43a10,10,0,0,0-1.79,1.11h0l-.19.16h0l0,0h0l-.28.26-.09.09-.18.17-.14.15-.12.13a1.56,1.56,0,0,0-.16.2l-.06.06-.09.12a12.88,12.88,0,0,0-1.19-1.49,10.56,10.56,0,0,0-4.08-2.83c-.16-.4-.34-.78-.52-1.17-.5-3.38-1.41-7.84-2.2-8.43s-1.33-1.27-5.8-.82l-.38-.25a12.07,12.07,0,0,0,.56-1.47c.05-.72.07-1.44.06-2.14a15.79,15.79,0,0,0,3.11-1.27c1.11-.89-2.25-11.82-3.49-11.83-.44,0-2.69.28-3.7.4a18.41,18.41,0,0,0-15.59-7.64l-.5-1.12a14.7,14.7,0,0,0-9,2.82l.28.93a17.82,17.82,0,0,0-8.59,15.65c-.87.5-2.88,1.65-3.24,1.92-1,.74,2.86,11.51,4.27,11.56a14.5,14.5,0,0,0,3.18-.82c.34.45.68.88,1.06,1.31-4.09,1.58-6.67,2.89-7.06,3.42-.53.71.28,4.08,1,6.56-1.43.95-3.09,2.91-3.65,7,0,.2-.05.41-.07.62a2.07,2.07,0,0,0-.83.4,2.85,2.85,0,0,0-.67.76l-.12.2-.12.24s0,0,0,.06l-.09.23,0,0-.09.3,0,.06-.06.29v.06c0,.08,0,.16-.05.24a.19.19,0,0,1,0,.08c0,.11,0,.22,0,.34h0l0-.05h0l0,0,0,0,0,0,0,0,0-.06,0,0-.06-.08,0,0a1.47,1.47,0,0,1-.1-.13l0,0-.09-.1-.09-.08,0,0,0,0-.08-.07-.16-.14h0a4.73,4.73,0,0,0-.6-.42h0a8.25,8.25,0,0,0-2-.84c-.75-2.55-1.68-4.8-1.72-7,0-2.36.65-4.19.78-6.23a10,10,0,0,0-.05-1.72l-.06-.39v-.07l-.06-.34v-.08c0-.1,0-.21-.07-.31v0a2,2,0,0,0-.07-.26v-.06c0-.09-.06-.18-.08-.26l0-.06-.09-.23,0-.05-.09-.19,0,0-.1-.18,0,0c0-.05-.08-.11-.12-.15l0,0-.12-.13,0,0-.12-.1,0,0-.14-.09,0,0-.16-.07h0l-.15,0h0l-.18,0h-.62l-.09,0h-.07l-.17,0c-1.44.37-2.22,2.13-2.59,4.46-.07.46-.13.93-.17,1.42-.27,3-.58,7.78-1.08,8.53a.41.41,0,0,1-.07.12c-.14.16-.48.29-1.21-.74a20.41,20.41,0,0,1-1.67-3.13c-1.93-4.3-5.23-7.79-7.55-8.21a1.88,1.88,0,0,0-1.52.29.64.64,0,0,0-.15.13l-.06,0-.08.09,0,.06a.46.46,0,0,0-.07.07l-.05.07-.06.08a.43.43,0,0,0,0,.07l-.05.07a.3.3,0,0,1,0,.08l0,.08,0,.07,0,.09a.19.19,0,0,1,0,.07l0,.1s0,.08,0,.12,0,.07,0,.11,0,0,0,.08a.28.28,0,0,1,0,.09v.26s0,.06,0,.09a.28.28,0,0,0,0,.09.38.38,0,0,0,0,.1s0,.06,0,.09,0,.06,0,.09,0,.06,0,.09l0,.1a.29.29,0,0,0,0,.09l0,.11,0,.09a1.09,1.09,0,0,0,.05.17l0,.09a.42.42,0,0,0,0,.1l0,.1.05.09a.3.3,0,0,0,0,.1l0,.1.05.1,0,.09.05.1a.41.41,0,0,0,.05.09l.05.1a.41.41,0,0,1,.05.09l.06.11,0,.07c.09.15.18.3.28.44l0,0,.1.14,0,0,.1.14,0,0,.1.15h0a.94.94,0,0,0,.46.57.27.27,0,0,0,.07.08c.24.3.5.57.74.83,1.87,1.92,2.9,3.12,1.52,3.69s-2.12-3.06-4.2-3.46h0a2,2,0,0,0-.78,0c-2.65.5-3.57,3.25-2.06,4.57l.2.17h0a2.09,2.09,0,0,0,1.32,1l.1.07c1.49,1,3.12,2.09,3.07,2.88-.09,1.11-.85,1.48-3,.52a6.56,6.56,0,0,0-3.48-.51c-1,.16-1.81.65-1.83,1.51a4.53,4.53,0,0,0,2,4.13,12.14,12.14,0,0,0,2.65,1l1.47.36.09.11c.53.75.23,1.09-.87,1.16a8.86,8.86,0,0,0-3.61.82h0a1.29,1.29,0,0,0-.68,1c-.05,1.58,1.36,3.7,5.35,4.22l.38,0H320a4.86,4.86,0,0,0,.56,0h.06l.19,0h.07l.16,0,.07,0,.14,0h.08l.12,0,.07,0,.11,0,.06,0,.11,0,.06,0,.09,0,0,0,.1-.05h0l.12-.07h0a1.51,1.51,0,0,0,.62-.56,11.66,11.66,0,0,0,4.32,1.12L327,250a18.79,18.79,0,0,0,10.79,5.27,13.82,13.82,0,0,0,3.87-.19,15,15,0,0,0,3-.91s2.7.74,6.52-1.43h0c.34-.2.7-.42,1.07-.67,0,0,.13.61.35,1.28,0,.16.1.31.15.47h0l-.08.06-.13.11-.28.24c-.91.82-2.81,2.65-2.62,3.72s1.18,1.59,2.77,1.56l-1.44.87h0c-1.07.65-2.46,1.53-3.22,2.11l-.06.05h0c-1.3,1-1.85,2.47-4.06,4.18s-2.17,3-3,6.53c-.37,1.54-.78,3.08-1.12,4.33-.44,1.62-.76,2.75-.76,2.75a13.49,13.49,0,0,0-1.52,1.74l0,.06,0,0-.06.09,0,0h0a15.64,15.64,0,0,0-1,1.56,13.78,13.78,0,0,0-.84,1.9,8.6,8.6,0,0,0-.32,1.16,32.2,32.2,0,0,0-.63,4.54c0,.61-.07,1.17-.08,1.65,0,1.08,0,1.76,0,1.76a12,12,0,0,0-1,1.4h0a15.55,15.55,0,0,0-1.39,2.83,12,12,0,0,0-.73,3.26c-.3,3.76,3.87,14.15,4.9,16.65-8.23-2.41-17.24-3.5-23.74-.22a9.69,9.69,0,0,0-2.18,1.33l-.5.39.06,0a8.93,8.93,0,0,0-.66.72,5.68,5.68,0,0,0-1.4,1.63c-.49.87-.29,2.44.57,4.47.18.43.39.87.63,1.33a38.53,38.53,0,0,0,4.68,6.87c.27.33.55.67.85,1a64.46,64.46,0,0,0,4.94,5.08l.94.86q2.47,2.21,5.4,4.4l1,.74a81.78,81.78,0,0,0,7.16,4.62l1.1.63q3.3,1.84,7,3.48l1.18.52c2.13.91,4.35,1.76,6.66,2.53l.57.19h0c.31,0,.61-.09.91-.15,7.68-1.5,12.31-8.43,13.1-13.51,0,0,0-.11,0-.33a6.73,6.73,0,0,0-.31-3.34,24.31,24.31,0,0,0-3.68-7.94,32.38,32.38,0,0,0-2.16-4.29,87.29,87.29,0,0,0-.13-10.55c-.52-5.34-2.23-9.49-1.95-12.35,0,0,2.55-1.18,4.64-10,.26-1.09.52-2.3.76-3.64l.18-.06c1.11-.35,6.73-2.37,8.95-7.36,2.47-5.54,4.94-6.34,6.27-5.48s6.9,6.16,15.09,5.76c0,0,.23.53.68,1.35h0A27.21,27.21,0,0,0,394.7,291a15,15,0,0,0,5.14,4.55,54.55,54.55,0,0,1,.77,11.32c-.12,5.13.46,11.45,2.24,15.31a34.33,34.33,0,0,0,.82,3.43,24.2,24.2,0,0,0,2.13,8.5,6.66,6.66,0,0,0,1.85,2.79l.24.23c3.8,3.45,11.76,5.94,18.68,2.28l.81-.45h0l.33-.51c1.31-2.05,2.5-4.11,3.59-6.15.2-.38.4-.76.59-1.14,1.22-2.39,2.3-4.76,3.24-7.09.16-.4.31-.79.46-1.18a83.87,83.87,0,0,0,2.67-8.09c.11-.41.22-.82.32-1.22.61-2.36,1.08-4.64,1.43-6.82.08-.42.14-.84.2-1.26a64.74,64.74,0,0,0,.66-7.05c0-.45,0-.88,0-1.31A39.28,39.28,0,0,0,440.23,288.79Zm-103.08-6.56h0v0Zm15.42-24.12-.19,0a1.13,1.13,0,0,1-.41-.16.77.77,0,0,1-.2-.26.85.85,0,0,1,0-.23,2,2,0,0,1,.24-.8l.16-.28c.12-.19.25-.38.38-.55a1.13,1.13,0,0,1,.1-.13l.18-.23c.28-.34.5-.56.5-.56A14.39,14.39,0,0,0,352.57,258.11Zm42.38-9.5h0s3.39-.6,3.92.16c.38.54.13,1.37-1.22,1.87a7.13,7.13,0,0,1-2,.4c-.17-.65-.39-1.36-.68-2.16A2.21,2.21,0,0,0,395,248.61Z"/></g></g></svg>