<!-- #bdfff4 #EFEBEA -->
<svg xmlns="http://www.w3.org/2000/svg" xmlns:xlink="http://www.w3.org/1999/xlink" viewBox="0 0 728.34 565.19"><defs><style>.cls-1{isolation:isolate;}.cls-2{fill:#EFEBEA;}.cls-3{fill:#a6e2d6;}.cls-4{fill:#fff;}.cls-5{fill:#7fd3c2;}.cls-6,.cls-8{fill:#11b7ae;}.cls-7{fill:#f0fffc;}.cls-8{opacity:0.42;}.cls-9{fill:#004345;}.cls-10{fill:#0d726e;}.cls-11{fill:#e6e6ff;}.cls-12{fill:#2d3368;}.cls-13{fill:#2d48b5;}.cls-14{fill:#a8a7c0;}.cls-15{fill:#c5c5e2;}.cls-16{fill:url(#Áåçûìÿííûé_ãðàäèåíò_136);}.cls-17{fill:#6f7f87;}.cls-18{fill:#ff3c00;}.cls-19{fill:#bc2800;}.cls-20{fill:#d1dee5;}.cls-21{fill:#576c7c;}.cls-22{fill:#79d3bd;}.cls-23{fill:#c5fff4;}.cls-24{fill:#e67840;}.cls-25{fill:#e98f60;}.cls-26{fill:#e57442;}.cls-27{fill:#db5e26;}.cls-28{fill:#f73123;}.cls-29{fill:#dd2424;}.cls-30{fill:#8ad5ff;}.cls-30,.cls-39{opacity:0.25;}.cls-30,.cls-39,.cls-40{mix-blend-mode:multiply;}.cls-31{fill:#44a3d8;}.cls-32{fill:#ff6700;}.cls-33{fill:#ff7e27;}.cls-34{fill:#005eb2;}.cls-35{fill:#027ad3;}.cls-36{fill:#005391;}.cls-37{fill:#d61818;}.cls-38{fill:#4e72bd;}.cls-39{fill:#598dea;}.cls-40{fill:#405f9a;opacity:0.5;}.cls-41{fill:#2e422c;}.cls-42{fill:#fffdff;}.cls-43{fill:#fce2e4;}.cls-44,.cls-51{fill:none;stroke-linecap:round;stroke-miterlimit:10;}.cls-44{stroke:#fffdff;stroke-width:3.48px;}.cls-45{fill:#fc8900;}.cls-46{fill:#ef7e03;}.cls-47{fill:#33211f;}.cls-48{fill:#f7c4a5;}.cls-49{fill:#e58c7e;}.cls-50{fill:#3f2926;}.cls-51{stroke:#e58c7e;stroke-width:1.16px;}</style><linearGradient id="Áåçûìÿííûé_ãðàäèåíò_136" x1="121.05" y1="231.75" x2="223.76" y2="231.75" gradientUnits="userSpaceOnUse"><stop offset="0.11" stop-color="#ffffa4"/><stop offset="0.41" stop-color="#ffd234"/><stop offset="0.8" stop-color="#ff9200"/></linearGradient></defs><title>No message</title><g class="cls-1"><g id="Layer_4" data-name="Layer 4"><path class="cls-2" d="M65.76,525.35s-95.87-145.17-54.58-174.1,83.57,14.94,73.07-21.16c-18.62-64,4.42-248.7,164-195.54,53.79,17.92,20.15-57.61,85.67-109.42C378.52-10.12,477.37-18.59,506.2,69c13.11,39.79,28.59,72.09,61.87,60.38,100.85-35.47,4.83,209.46,53.65,201.88s103.12,19.48,74.82,109.71c-11.69,37.28-27.7,68.7-37.13,90.72Z" transform="translate(-0.86 -0.01)"/><path class="cls-3" d="M350.83,437.69s-29.43-71.08-17.41-85.36,36.57,45.29,42.32,36.48-15.41-86.43,5.23-101,17.76,86,29,74.67,13.19-54.6,24.62-39.65-17.31,61.67-5,62,20-16.66,24.23-4.16S423.1,487.54,423.1,487.54Z" transform="translate(-0.86 -0.01)"/><path class="cls-4" d="M368.27,439.55a.44.44,0,0,1-.4-.39,253.37,253.37,0,0,0-10.56-43.68C349.78,374,335.6,356,335.46,355.79a.5.5,0,0,1,0-.65.37.37,0,0,1,.56,0c.14.18,14.42,18.3,22,40A256,256,0,0,1,368.66,439a.44.44,0,0,1-.33.52Z" transform="translate(-0.86 -0.01)"/><path class="cls-4" d="M394.63,441.86a.42.42,0,0,1-.4-.41c0-.18-1.79-19.1-7.63-66.8s-.06-92.7,0-93.15a.4.4,0,0,1,.45-.38.44.44,0,0,1,.34.51c-.06.45-5.84,45.26,0,92.9S395,441.17,395,441.36a.44.44,0,0,1-.35.5Z" transform="translate(-0.86 -0.01)"/><path class="cls-4" d="M403.25,439.43h0a.45.45,0,0,1-.36-.5c0-.24,2.36-25.08,14.3-70.35s21.38-57.1,21.77-57.58a.37.37,0,0,1,.57,0,.5.5,0,0,1,0,.64c-.1.12-9.7,12.17-21.59,57.23S403.67,438.78,403.65,439A.43.43,0,0,1,403.25,439.43Z" transform="translate(-0.86 -0.01)"/><path class="cls-4" d="M424.93,439.55a.42.42,0,0,1-.4-.39c0-.42-1.26-10.46,9.72-30.57,1.87-3.43,3.64-6.61,5.28-9.56,7.84-14.12,13-23.44,12.94-30.31a.43.43,0,0,1,.39-.46h0a.43.43,0,0,1,.4.45c.09,7.14-4.86,16-13.07,30.8q-2.46,4.42-5.27,9.55c-10.83,19.83-9.62,29.86-9.61,30a.45.45,0,0,1-.33.52Z" transform="translate(-0.86 -0.01)"/><path class="cls-4" d="M427.71,336.15a.4.4,0,0,1-.38-.31l-2.84-9.68a.48.48,0,0,1,.26-.57.39.39,0,0,1,.5.29l2.84,9.67a.48.48,0,0,1-.26.57Z" transform="translate(-0.86 -0.01)"/><path class="cls-4" d="M423.08,349.85a.43.43,0,0,1-.4-.38l-1.84-11.78a.45.45,0,0,1,.32-.53.4.4,0,0,1,.46.37l1.85,11.78a.46.46,0,0,1-.32.53Z" transform="translate(-0.86 -0.01)"/><path class="cls-4" d="M418.11,367a.4.4,0,0,1-.37-.29l-3.65-11.09a.48.48,0,0,1,.24-.59.39.39,0,0,1,.51.27l3.64,11.09a.48.48,0,0,1-.23.59Z" transform="translate(-0.86 -0.01)"/><path class="cls-4" d="M414.89,379.48a.42.42,0,0,1-.38-.31l-4.92-16.58a.47.47,0,0,1,.25-.58.39.39,0,0,1,.5.29l4.93,16.58a.46.46,0,0,1-.25.57A.31.31,0,0,1,414.89,379.48Z" transform="translate(-0.86 -0.01)"/><path class="cls-4" d="M385.73,362.9a.38.38,0,0,1-.29-.15.5.5,0,0,1,0-.65L403,344.22a.37.37,0,0,1,.57,0,.51.51,0,0,1,0,.64L386,362.78A.37.37,0,0,1,385.73,362.9Z" transform="translate(-0.86 -0.01)"/><path class="cls-4" d="M385.73,349.85a.38.38,0,0,1-.29-.15.5.5,0,0,1,0-.64l15.79-16.66a.38.38,0,0,1,.57,0,.51.51,0,0,1,0,.65L386,349.73A.39.39,0,0,1,385.73,349.85Z" transform="translate(-0.86 -0.01)"/><path class="cls-4" d="M384.36,335.3a.37.37,0,0,1-.3-.16.51.51,0,0,1,0-.64l14.18-13.91a.38.38,0,0,1,.57.05.51.51,0,0,1,0,.64l-14.19,13.91A.33.33,0,0,1,384.36,335.3Z" transform="translate(-0.86 -0.01)"/><path class="cls-4" d="M384.36,322.22a.4.4,0,0,1-.31-.17.5.5,0,0,1,.06-.64l14.18-13.15a.37.37,0,0,1,.56.06.5.5,0,0,1-.05.64l-14.19,13.16A.39.39,0,0,1,384.36,322.22Z" transform="translate(-0.86 -0.01)"/><path class="cls-4" d="M384.84,309.07a.37.37,0,0,1-.3-.16.5.5,0,0,1,0-.64l9.8-9.74a.37.37,0,0,1,.56.05.5.5,0,0,1,0,.64L385.1,309A.37.37,0,0,1,384.84,309.07Z" transform="translate(-0.86 -0.01)"/><path class="cls-4" d="M353.37,385.16H332.25a.42.42,0,0,1-.39-.45.43.43,0,0,1,.39-.46h21.12a.44.44,0,0,1,.4.46A.43.43,0,0,1,353.37,385.16Z" transform="translate(-0.86 -0.01)"/><path class="cls-4" d="M335.75,401.74a.41.41,0,0,1-.39-.37.45.45,0,0,1,.32-.53L358,396.07a.41.41,0,0,1,.46.37.46.46,0,0,1-.32.53l-22.33,4.77Z" transform="translate(-0.86 -0.01)"/><path class="cls-4" d="M339,416.87a.41.41,0,0,1-.38-.33.47.47,0,0,1,.27-.56l22.81-7.66a.4.4,0,0,1,.5.31.47.47,0,0,1-.27.56l-22.81,7.66Z" transform="translate(-0.86 -0.01)"/><path class="cls-4" d="M344.82,430.22a.4.4,0,0,1-.38-.31.47.47,0,0,1,.25-.57l20.37-7.48a.4.4,0,0,1,.5.29.48.48,0,0,1-.26.58l-20.36,7.47A.25.25,0,0,1,344.82,430.22Z" transform="translate(-0.86 -0.01)"/><path class="cls-4" d="M424.87,434.61a.41.41,0,0,1-.38-.33.47.47,0,0,1,.27-.56l15.82-5.2a.4.4,0,0,1,.5.31.47.47,0,0,1-.27.57L425,434.59A.2.2,0,0,1,424.87,434.61Z" transform="translate(-0.86 -0.01)"/><path class="cls-4" d="M426.6,428a.4.4,0,0,1-.37-.3.46.46,0,0,1,.24-.58l17.73-7.28a.39.39,0,0,1,.51.28.47.47,0,0,1-.24.58L426.74,428A.35.35,0,0,1,426.6,428Z" transform="translate(-0.86 -0.01)"/><path class="cls-4" d="M429.71,419.33a.41.41,0,0,1-.39-.34.45.45,0,0,1,.28-.55L448.11,413a.39.39,0,0,1,.48.33.45.45,0,0,1-.28.55l-18.5,5.47Z" transform="translate(-0.86 -0.01)"/><path class="cls-4" d="M433.67,411a.4.4,0,0,1-.38-.36.45.45,0,0,1,.3-.54l17.92-4.58a.41.41,0,0,1,.48.34.47.47,0,0,1-.31.55L433.76,411Z" transform="translate(-0.86 -0.01)"/><path class="cls-4" d="M438.12,402.87a.42.42,0,0,1-.39-.36A.46.46,0,0,1,438,402l14.75-3.51a.4.4,0,0,1,.47.35.45.45,0,0,1-.31.54l-14.75,3.51Z" transform="translate(-0.86 -0.01)"/><path class="cls-4" d="M442.06,395.77a.41.41,0,0,1-.38-.32.48.48,0,0,1,.26-.57l13.58-4.83a.39.39,0,0,1,.5.29.47.47,0,0,1-.26.57l-13.58,4.84Z" transform="translate(-0.86 -0.01)"/><path class="cls-4" d="M446.21,388.12a.41.41,0,0,1-.38-.3.47.47,0,0,1,.25-.58l9.49-3.82a.39.39,0,0,1,.51.28.47.47,0,0,1-.24.57l-9.5,3.82A.31.31,0,0,1,446.21,388.12Z" transform="translate(-0.86 -0.01)"/><path class="cls-4" d="M448.85,383a.39.39,0,0,1-.36-.27.48.48,0,0,1,.2-.6l6.78-3.5a.38.38,0,0,1,.53.22.5.5,0,0,1-.2.61l-6.79,3.5A.42.42,0,0,1,448.85,383Z" transform="translate(-0.86 -0.01)"/><path class="cls-4" d="M640.18,526.56,638.76,520c-.09-.44-2.27-10.95,0-41.59,2-26.75,13.65-88.52,16.63-104-6.85,8-26.33,33.54-30.72,68.07-5.33,41.91,8.79,73.16,8.94,73.47l-1.82.84c-.14-.31-14.51-32.06-9.1-74.56s33.37-71.6,33.65-71.89l2.34-2.39-.64,3.28c-.15.77-15.06,76.89-17.29,107.32a290.66,290.66,0,0,0-.88,31c2.25-18,8.27-55.78,21.21-79,17.44-31.34,37.42-38.76,38.26-39.06l2.09-.75L650.28,518.14l-1.85-.74L697.8,394.34c-5.66,2.86-21.27,12.5-35,37.16-17.16,30.83-22,87.8-22.07,88.37Z" transform="translate(-0.86 -0.01)"/><path class="cls-4" d="M618.61,517.82a211.61,211.61,0,0,1-19.87-56.51c-6.24-32.14,14.84-66.62,15-67l1.62-2.61,9.25,125.52-2,.15-8.78-119.19c-4.77,8.78-18.25,36.61-13.18,62.72a209.1,209.1,0,0,0,19.65,55.91Z" transform="translate(-0.86 -0.01)"/><ellipse class="cls-5" cx="182.37" cy="519.77" rx="125.45" ry="14.1"/><polygon class="cls-4" points="135.73 441.61 277.02 441.61 288.36 446.75 154.06 446.75 135.73 441.61"/><polygon class="cls-4" points="288.36 524.38 154.06 524.38 154.06 446.75 288.36 446.75 288.36 452.95 279.95 457.51 288.36 461.37 288.36 462.33 288.36 465.77 286.06 471.71 288.36 475.74 288.36 479.67 280.87 484.28 288.36 484.28 288.36 486.47 288.36 488.05 288.36 491.4 284.4 494.69 288.36 500.92 285.23 507.35 288.36 512.67 288.36 514.78 288.36 518.22 286.44 520.37 288.36 522.76 288.36 524.38"/><polygon class="cls-6" points="154.06 524.38 145.45 521.8 144.87 444.18 154.06 446.75 154.06 524.38"/><polygon class="cls-7" points="197.28 468.37 154.06 468.37 175.67 475.06 197.28 468.37"/><polygon class="cls-6" points="154.06 508.28 169.88 504.18 154.06 504.18 156.71 493.4 153.05 486.47 154.06 508.28"/><polygon class="cls-6" points="154.06 464.69 174.62 464.69 152.06 461.37 154.06 464.69"/><polygon class="cls-6" points="150.41 450.42 182.84 450.42 152.06 447.52 150.41 450.42"/><polygon class="cls-6" points="150.41 511.18 182.84 509.73 152.06 508.28 150.41 511.18"/><polygon class="cls-6" points="148.89 521.11 166.62 521.11 150.54 518.22 148.89 521.11"/><polygon class="cls-6" points="153.94 462.33 156.04 457.27 152.06 452.7 153.94 462.33"/><polygon class="cls-6" points="135.73 519.27 135.73 512.43 145.45 515.13 135.73 511.46 135.73 502.65 141.08 502.98 135.73 501.2 135.73 485.57 137.65 481.86 135.58 478.31 135.58 473.13 144.42 472.81 135.43 469.88 135.43 461.37 136.84 458.35 135.73 455.39 135.73 448.97 144.01 451.84 135.73 446.75 135.73 441.61 148.89 445.31 148.89 522.76 135.73 519.27"/><polygon class="cls-2" points="236.31 508.28 179.55 508.28 208.75 512.67 236.31 508.28"/><polygon class="cls-2" points="281.57 487.53 241.93 487.53 278.94 494.69 281.57 487.53"/><polygon class="cls-7" points="288.36 461.37 250.35 461.11 296.78 465.77 288.36 461.37"/><polygon class="cls-2" points="212.8 491.93 156.04 491.93 173.48 496.32 212.8 491.93"/><polygon class="cls-7" points="254.27 473.55 213.55 473.55 239.81 476.95 254.27 473.55"/><polygon class="cls-7" points="276.49 520 235.77 520 262.47 521.7 276.49 520"/><polygon class="cls-6" points="263.14 481.34 187.78 481.08 242.8 483.81 263.14 481.34"/><polygon class="cls-6" points="288.91 452.95 240.47 452.7 283.32 455.42 288.91 452.95"/><polygon class="cls-6" points="258.57 513.98 216.24 514.16 248.45 516.2 258.57 513.98"/><polygon class="cls-7" points="194.12 457.2 156.04 457.2 166.62 459.86 194.12 457.2"/><polygon class="cls-7" points="191.66 519.03 153.58 519.03 164.16 521.7 191.66 519.03"/><polygon class="cls-4" points="149.75 468.16 135.59 463.38 131.11 466.6 149.75 468.16"/><polygon class="cls-4" points="154.06 494.52 137.09 489.73 141.58 494.69 154.06 494.52"/><polygon class="cls-4" points="150.51 377.74 291.81 377.74 303.15 382.2 168.84 382.2 150.51 377.74"/><polygon class="cls-4" points="303.15 449.43 168.84 449.43 168.84 382.2 303.15 382.2 303.15 387.56 294.74 391.51 303.15 394.86 303.15 395.69 303.15 398.67 300.85 403.81 303.15 407.3 303.15 410.71 295.65 414.7 303.15 414.7 303.15 416.6 303.15 417.96 303.15 420.87 299.19 423.71 303.15 429.11 300.02 434.68 303.15 439.28 303.15 441.11 303.15 444.09 301.22 445.95 303.15 448.02 303.15 449.43"/><polygon class="cls-6" points="168.84 449.43 160.23 447.2 159.65 379.97 168.84 382.2 168.84 449.43"/><polygon class="cls-2" points="212.06 400.92 168.84 400.92 190.45 406.71 212.06 400.92"/><polygon class="cls-6" points="168.84 435.49 184.66 431.94 168.84 431.94 171.5 422.59 167.83 416.6 168.84 435.49"/><polygon class="cls-6" points="168.84 397.73 189.41 397.73 166.84 394.86 168.84 397.73"/><polygon class="cls-6" points="165.19 385.37 197.62 385.37 166.84 382.86 165.19 385.37"/><polygon class="cls-6" points="165.19 437.99 197.62 436.74 166.84 435.49 165.19 437.99"/><polygon class="cls-6" points="163.67 446.6 181.41 446.6 165.32 444.09 163.67 446.6"/><polygon class="cls-6" points="168.73 395.69 170.83 391.3 166.84 387.34 168.73 395.69"/><polygon class="cls-6" points="150.51 445 150.51 439.08 160.23 441.42 150.51 438.24 150.51 430.61 155.87 430.89 150.51 429.35 150.51 415.81 152.43 412.6 150.36 409.53 150.36 405.04 159.21 404.77 150.21 402.23 150.21 394.86 151.62 392.24 150.51 389.67 150.51 384.11 158.79 386.6 150.51 382.2 150.51 377.74 163.67 380.94 163.67 448.02 150.51 445"/><polygon class="cls-2" points="251.09 435.49 194.33 435.49 223.53 439.28 251.09 435.49"/><polygon class="cls-7" points="296.36 417.51 256.71 417.51 293.72 423.71 296.36 417.51"/><polygon class="cls-7" points="303.15 394.86 265.13 394.63 311.56 398.67 303.15 394.86"/><polygon class="cls-2" points="227.58 421.32 170.83 421.32 188.26 425.12 227.58 421.32"/><polygon class="cls-2" points="269.05 405.4 228.33 405.4 254.59 408.35 269.05 405.4"/><polygon class="cls-7" points="291.28 445.63 250.55 445.63 277.26 447.1 291.28 445.63"/><polygon class="cls-6" points="277.93 412.15 202.57 411.93 257.58 414.29 277.93 412.15"/><polygon class="cls-6" points="303.69 387.56 255.25 387.34 298.1 389.7 303.69 387.56"/><polygon class="cls-6" points="273.35 440.42 231.03 440.57 263.24 442.35 273.35 440.42"/><polygon class="cls-7" points="208.9 391.24 170.83 391.24 181.41 393.55 208.9 391.24"/><polygon class="cls-7" points="206.44 444.8 168.37 444.8 178.95 447.1 206.44 444.8"/><polygon class="cls-4" points="164.54 400.74 150.37 396.6 145.89 399.39 164.54 400.74"/><polygon class="cls-4" points="168.84 423.57 151.87 419.41 156.36 423.71 168.84 423.57"/><polygon class="cls-4" points="109.57 301.83 250.87 299.97 262.2 305.11 127.9 305.11 109.57 301.83"/><polygon class="cls-4" points="262.2 382.74 127.9 382.74 127.9 305.11 262.2 305.11 262.2 311.31 253.79 315.87 262.2 319.73 262.2 320.69 262.2 324.13 259.9 330.07 262.2 334.1 262.2 338.03 254.71 342.64 262.2 342.64 262.2 344.83 262.2 346.41 262.2 349.76 258.24 353.05 262.2 359.28 259.07 365.71 262.2 371.02 262.2 373.13 262.2 376.58 260.28 378.72 262.2 381.12 262.2 382.74"/><polygon class="cls-6" points="127.9 382.74 119.29 380.16 118.11 303.69 127.9 305.11 127.9 382.74"/><polygon class="cls-2" points="171.12 326.73 127.9 326.73 149.51 333.41 171.12 326.73"/><polygon class="cls-6" points="127.9 366.64 143.72 362.54 127.9 362.54 130.55 351.75 126.89 344.83 127.9 366.64"/><polygon class="cls-6" points="127.9 323.04 148.46 323.04 125.9 319.73 127.9 323.04"/><polygon class="cls-6" points="124.25 308.77 156.68 308.77 125.9 305.88 124.25 308.77"/><polygon class="cls-6" points="124.25 369.53 156.68 368.09 125.9 366.64 124.25 369.53"/><polygon class="cls-6" points="122.73 379.47 140.46 379.47 124.38 376.58 122.73 379.47"/><polygon class="cls-6" points="127.78 320.69 129.88 315.62 125.9 311.06 127.78 320.69"/><polygon class="cls-6" points="109.57 377.63 109.57 370.79 119.29 373.49 109.57 369.82 109.57 361.01 114.92 361.34 109.57 359.56 109.57 343.92 111.49 340.22 109.42 336.67 109.42 331.49 118.26 331.17 109.27 328.24 109.27 319.73 110.68 316.7 109.57 313.75 109.57 307.33 117.85 310.2 109.57 305.11 109.57 301.83 127.9 305.11 122.73 381.12 109.57 377.63"/><polygon class="cls-2" points="210.15 366.64 153.39 366.64 182.59 371.02 210.15 366.64"/><polygon class="cls-2" points="255.41 345.89 215.77 345.89 252.78 353.05 255.41 345.89"/><polygon class="cls-7" points="262.2 319.73 224.19 319.46 270.62 324.13 262.2 319.73"/><polygon class="cls-2" points="186.64 350.29 129.88 350.29 147.32 354.68 186.64 350.29"/><polygon class="cls-2" points="228.11 331.9 187.39 331.9 213.65 335.3 228.11 331.9"/><polygon class="cls-7" points="250.33 378.35 209.61 378.35 236.31 380.05 250.33 378.35"/><polygon class="cls-6" points="236.98 339.69 161.63 339.44 216.64 342.16 236.98 339.69"/><polygon class="cls-6" points="262.75 311.31 214.31 311.06 257.16 313.78 262.75 311.31"/><polygon class="cls-6" points="232.41 372.34 190.08 372.51 222.29 374.56 232.41 372.34"/><polygon class="cls-2" points="167.96 315.56 129.88 315.56 140.46 318.22 167.96 315.56"/><polygon class="cls-7" points="165.5 377.39 127.42 377.39 138.01 380.05 165.5 377.39"/><polygon class="cls-4" points="123.59 326.52 109.43 321.74 104.95 324.96 123.59 326.52"/><polygon class="cls-4" points="127.9 352.88 110.93 348.08 115.42 353.05 127.9 352.88"/><polygon class="cls-6" points="165.5 398.67 270.08 382.74 161.63 384.11 165.5 398.67"/><polygon class="cls-8" points="163.67 448.02 170.83 449.43 288.91 450.66 279.95 457.51 151.87 491.93 149.75 468.16 152.06 447.52 163.67 448.02"/><polygon class="cls-9" points="225.38 303.23 126.4 303.23 128.03 282.55 226.07 282.11 225.38 303.23"/><polygon class="cls-10" points="225.38 303.23 165.91 303.23 127.73 286.28 128.03 282.55 226.07 282.11 225.38 303.23"/><polygon class="cls-11" points="210.8 286.41 210.53 298.94 180.64 298.94 180.64 286.9 210.8 286.41"/><polygon class="cls-11" points="177.94 286.9 178.14 298.94 173.35 298.94 172.88 286.9 177.94 286.9"/><polygon class="cls-12" points="221.22 282.55 122.24 282.55 123.58 261.43 221.91 261.43 221.22 282.55"/><polygon class="cls-13" points="221.22 282.55 204.64 282.36 132.4 261.52 221.91 261.43 221.22 282.55"/><polygon class="cls-11" points="206.64 265.73 206.38 278.25 176.48 278.25 176.48 266.22 206.64 265.73"/><polygon class="cls-11" points="173.78 266.22 173.99 278.25 169.2 278.25 168.72 266.22 173.78 266.22"/><polygon class="cls-14" points="109.82 261.41 207.42 261.41 207.07 241.2 109.13 240.29 109.82 261.41"/><polygon class="cls-15" points="207.42 261.41 179.1 261.52 124.4 240.43 207.07 241.2 207.42 261.41"/><polygon class="cls-11" points="124.4 244.59 124.66 257.12 154.56 257.12 154.56 245.08 124.4 244.59"/><polygon class="cls-11" points="157.26 245.08 157.06 257.12 161.84 257.12 162.32 245.08 157.26 245.08"/><polygon class="cls-16" points="221.22 241.37 223.76 222.14 218.12 222.71 121.05 232.42 121.24 234.17 219.6 225.48 217.47 239.5 121.52 239.6 121.42 241.11 221.22 241.37"/><path class="cls-17" d="M219.56,231.36s-3.74-6.84-7.21-5.15a7.2,7.2,0,0,0-3.75,5.62l1,.62s.87-5.39,3.75-5.33,4.65,5.33,4.65,5.33.68,3.61-2.27,5.34-4.77.22-5.22-.57a13.59,13.59,0,0,1-.79-3.07l-1.14.12s.08,3.28,1.25,4.32a6.12,6.12,0,0,0,6,.67,10.07,10.07,0,0,0,3.13-2.67Z" transform="translate(-0.86 -0.01)"/><polygon class="cls-4" points="212 229.8 122.61 235.46 121.57 237.36 122.31 238.55 212.59 235.46 212.59 232.83 213.23 230.39 212 229.8"/><path class="cls-5" d="M358.77,537.2c0-7.77-48.58-14.06-108.51-14.06s-108.52,6.29-108.52,14.06,48.59,14,108.52,14S358.77,545,358.77,537.2Z" transform="translate(-0.86 -0.01)"/><path class="cls-5" d="M683.05,537.2c0-7.77-53.95-14.06-120.51-14.06S442,529.43,442,537.2s54,14,120.51,14S683.05,545,683.05,537.2Z" transform="translate(-0.86 -0.01)"/><polygon class="cls-6" points="120.86 505.8 121.31 508.24 124.42 509.93 122.04 509.8 174.37 530.34 177.16 529.49 178.47 522.54 120.86 505.8"/><polygon class="cls-18" points="152.84 440.79 120.86 505.8 172.5 526.9 212.5 447.87 152.84 440.79"/><polygon class="cls-19" points="212.5 447.87 180.36 462.08 170.53 526.09 140.86 513.22 120.86 505.8 152.84 440.79 212.5 447.87"/><path class="cls-4" d="M213.35,447.88l1.86,1.83-.92,1.88,2.28-1.71.81,1.88S178.46,529.53,178,529.51l-2-.11,1.56-2.41L175,529.34l-1.63-2.43Z" transform="translate(-0.86 -0.01)"/><polygon class="cls-20" points="203.83 469.05 214.59 448.94 217.31 447.98 203.83 469.05"/><polygon class="cls-20" points="185.95 505.67 203.81 471.21 203.79 476.03 185.95 505.67"/><path class="cls-4" d="M79.79,505.91,96,508.57c9.41-5.17,33.33-42.41,33.33-42.41l58.46,7.95s-30.88,47.62-39.13,51.8-25.3-12.83-25.3-12.83Z" transform="translate(-0.86 -0.01)"/><polygon class="cls-21" points="162.87 473.85 180.83 476.2 180.03 477 162.18 474.55 162.87 473.85"/><polygon class="cls-21" points="160.51 476.82 179.24 479.31 178.44 480.11 159.82 477.52 160.51 476.82"/><polygon class="cls-21" points="164.27 480.71 177.59 482.4 176.79 483.21 163.58 481.41 164.27 480.71"/><polygon class="cls-21" points="137.84 480.24 156.65 482.77 155.85 483.57 137.15 480.93 137.84 480.24"/><polygon class="cls-21" points="124.35 481.57 173.42 488.45 172.62 489.25 123.67 482.27 124.35 481.57"/><polygon class="cls-21" points="122 484.55 171.06 491.43 170.26 492.23 121.31 485.25 122 484.55"/><polygon class="cls-21" points="119.64 487.53 168.7 494.41 167.91 495.21 118.95 488.23 119.64 487.53"/><polygon class="cls-21" points="117.73 490.58 166.8 497.46 166 498.26 117.04 491.28 117.73 490.58"/><polygon class="cls-21" points="115.92 493.65 164.99 500.53 164.19 501.33 115.24 494.35 115.92 493.65"/><polygon class="cls-21" points="113.84 496.68 162.9 503.56 162.11 504.36 113.15 497.38 113.84 496.68"/><polygon class="cls-21" points="111.25 499.62 160.32 506.5 159.52 507.3 110.56 500.32 111.25 499.62"/><polygon class="cls-21" points="108.8 502.58 157.87 509.46 157.07 510.26 108.11 503.28 108.8 502.58"/><polygon class="cls-21" points="106.44 505.56 155.51 512.44 154.71 513.24 105.76 506.26 106.44 505.56"/><polygon class="cls-21" points="103.12 508.38 152.19 515.26 151.39 516.06 102.43 509.08 103.12 508.38"/><polygon class="cls-21" points="100.76 511.36 149.83 518.24 149.03 519.04 100.08 512.06 100.76 511.36"/><polygon class="cls-21" points="98.4 514.34 147.47 521.22 146.67 522.02 97.72 515.03 98.4 514.34"/><polygon class="cls-21" points="96.04 517.32 145.11 524.19 144.31 525 95.36 518.01 96.04 517.32"/><path class="cls-6" d="M79.79,505.91a25.24,25.24,0,0,0,8.08,9.6,25.66,25.66,0,0,0,9.59,4.08l46.69,7.32s-8.56-3.39-13.63-7.64-7.14-6.19-7.14-6.19Z" transform="translate(-0.86 -0.01)"/><path class="cls-22" d="M442.76,513.41s23-29.2,20.61-44.51-10.86.64-20.61,3.55,11.15-41.34-4.63-57.79-37.32,13.66-46.22,31.71-51.18-64.86-65.27-53.24S345,513,345,513Z" transform="translate(-0.86 -0.01)"/><path class="cls-4" d="M361.41,512.79c0-.38-4.33-38.27-12.55-63-8.06-24.3-11.16-28.33-11.28-28.49L339.1,420c.14.15,3.35,4.09,11.66,29.14s12.59,63.07,12.63,63.45Z" transform="translate(-0.86 -0.01)"/><path class="cls-4" d="M394.31,514l-2-.21c0-.23,2.53-23.85,10-42.43A142.59,142.59,0,0,1,420,439.72l1.57,1.24a140.54,140.54,0,0,0-17.42,31.14C396.82,490.4,394.34,513.76,394.31,514Z" transform="translate(-0.86 -0.01)"/><path class="cls-4" d="M405.71,514.47l-1.62-1.17A154.58,154.58,0,0,1,424,491.47c11.3-10,26.49-13.8,27.14-14l.48,1.94c-.16,0-15.37,3.9-26.3,13.52A152.19,152.19,0,0,0,405.71,514.47Z" transform="translate(-0.86 -0.01)"/><polygon class="cls-4" points="355.52 474.73 337.13 467.57 337.85 465.71 354.92 472.36 369.93 454.77 371.45 456.07 355.52 474.73"/><polygon class="cls-4" points="349.98 452.39 331.43 445.74 332.11 443.86 349.05 449.94 357.28 435 359.03 435.97 349.98 452.39"/><polygon class="cls-4" points="343.26 433.2 331.53 430.33 332.01 428.39 342.29 430.91 348.66 420.12 350.38 421.14 343.26 433.2"/><polygon class="cls-4" points="359.11 495.03 342.2 483 343.36 481.37 358.68 492.27 371.97 474.46 373.57 475.65 359.11 495.03"/><path class="cls-4" d="M411.77,453.9l-.14-1.07c-1.27-10.09-1.72-15.63-1.35-16.48l1.83.8-.91-.4.95.3c-.18.9.52,7.88,1.33,14.47L430.89,448l.39,2Z" transform="translate(-0.86 -0.01)"/><polygon class="cls-4" points="402.46 470.76 397.68 452.96 399.61 452.44 403.98 468.7 420.21 468.06 420.29 470.05 402.46 470.76"/><polygon class="cls-4" points="395.31 494.87 386.03 473.95 387.85 473.14 396.42 492.44 409.98 488.3 410.56 490.21 395.31 494.87"/><rect class="cls-4" x="444.66" y="476.68" width="2" height="18.48" transform="translate(-111.94 839.12) rotate(-79.87)"/><polygon class="cls-4" points="444.61 497.3 423.64 493.19 424.03 491.23 445 495.34 444.61 497.3"/><rect class="cls-4" x="423.96" y="493.98" width="2" height="19.81" transform="translate(-172.02 785.19) rotate(-75.12)"/><path class="cls-4" d="M73.93,513.1c-2.08-4.44-51-109.17-48.29-135.17.11-1.05.44-4.25,2.72-4.66,6.56-1.12,22,29.19,40.13,66,4,8.15,7.86,16,10,19.9-.46-3.76-1.46-10.41-2.63-18.19C69,395.11,62.78,350,69,345.24a2.58,2.58,0,0,1,2.7-.25c6.75,3,13,32.56,21,74.05,3.52,18.06,7.47,38.4,9.65,41.72,1.7-4.37,2.87-13.87,4.11-23.93,2.53-20.57,4.57-34.21,9.61-36.13,1.41-.53,2.88-.14,4.38,1.18,11.49,10.07-1,75.65-1.58,78.43l-2-.37c3.61-18.67,11-68.82,2.23-76.56-1.36-1.19-2.11-.91-2.36-.81-4.29,1.64-6.54,19.86-8.34,34.51-1.26,10.19-2.44,19.81-4.23,24.4-.55,1.41-1.33,1.64-1.89,1.59-2.75-.24-4.94-9.52-11.57-43.65C85,390,77.18,349.59,70.86,346.82c-.43-.19-.59-.07-.69,0-5.75,4.4,3.33,64.8,7.7,93.83,2,13.24,3,20.22,2.92,21.75a1.15,1.15,0,0,1-.91,1.13c-1.35.27-1.95-.58-13.18-23.41C56.29,419,34.77,375.22,28.9,375.22l-.19,0c-.37.07-.87.87-1.09,2.9-2.69,25.45,47.61,133,48.12,134.12Z" transform="translate(-0.86 -0.01)"/><path class="cls-22" d="M154.35,120.33c9.48-1.76,17.61,7,15.77,16.48-2.44,12.53-7.4,38.8-7.4,45.45,0,8.82-31.35-13.37-25.91-41.29C139.38,127.79,146.94,121.7,154.35,120.33Z" transform="translate(-0.86 -0.01)"/><path class="cls-22" d="M135.93,178.54s-26.32-4.37-35.95-19.17,16.16-29.23,23.39-21.53S140.34,175.52,135.93,178.54Z" transform="translate(-0.86 -0.01)"/><path class="cls-22" d="M134.73,193.39s-21,5.6-19.93-3.47,10.52-10.18,15.65-7.87S136.29,189.7,134.73,193.39Z" transform="translate(-0.86 -0.01)"/><path class="cls-22" d="M181,166.6c-3.78,5.42-12.28.87-10.05-5.35,4.12-11.44,9.92-24.52,14.93-24.4,8.9.2-.81,23.71-4.75,29.58A1.09,1.09,0,0,1,181,166.6Z" transform="translate(-0.86 -0.01)"/><path class="cls-22" d="M160.88,228.43s-.12-6-10.81-27.73-31.37-41.84-31.37-41.84l-.38-3.89s22,22.63,31,35.47S162,207,162,207L150.22,137.5s12.89,46.56,16.8,62.24c4.87,19.52,3.59,27.82,3.59,27.82Z" transform="translate(-0.86 -0.01)"/><path class="cls-4" d="M161.13,183.58a.7.7,0,0,1-.76-.35,65.21,65.21,0,0,1-6.48-29.87A60.5,60.5,0,0,1,162.08,125a.7.7,0,0,1,1.18.77,59,59,0,0,0-8,27.68,63.75,63.75,0,0,0,6.3,29.15.7.7,0,0,1-.28,1A.73.73,0,0,1,161.13,183.58Z" transform="translate(-0.86 -0.01)"/><path class="cls-4" d="M158.66,179.71l-.4-1.15c0-.11-3.85-10.91-9.88-16.62a17.78,17.78,0,0,0-10.14-4.48.71.71,0,0,1-.67-.74.72.72,0,0,1,.74-.67,18.84,18.84,0,0,1,11,4.87c5.17,4.89,8.66,13.06,9.82,16.05l4-4.63a.71.71,0,0,1,1.07.92Z" transform="translate(-0.86 -0.01)"/><path class="cls-4" d="M154.73,158a.71.71,0,0,1-.82-.51c0-.1-2.74-10.13-7.3-12a20.45,20.45,0,0,0-8.54-1.68.7.7,0,0,1-.12-1.4,21.12,21.12,0,0,1,9.21,1.78c5.19,2.18,8,12.53,8.11,13a.71.71,0,0,1-.5.87Z" transform="translate(-0.86 -0.01)"/><path class="cls-4" d="M155.42,145.83l-.16,0a.7.7,0,0,1-.69-.72c0-.06.1-6-2.66-9.78s-8.92-3.95-9-3.95a.7.7,0,0,1-.68-.72A.71.71,0,0,1,143,130c.28,0,7,.26,10.08,4.53S156,144.9,156,145.16A.69.69,0,0,1,155.42,145.83Z" transform="translate(-0.86 -0.01)"/><path class="cls-4" d="M158.15,136.07h0a.71.71,0,0,1-.82-.57,27.77,27.77,0,0,0-2.56-7.56,8.25,8.25,0,0,0-4.7-3.48.69.69,0,0,1-.52-.84.7.7,0,0,1,.84-.53,9.64,9.64,0,0,1,5.6,4.13,29.1,29.1,0,0,1,2.73,8A.69.69,0,0,1,158.15,136.07Z" transform="translate(-0.86 -0.01)"/><path class="cls-4" d="M155.42,161.33a.69.69,0,0,1-.66-.21.71.71,0,0,1,0-1l9.09-8.52a.7.7,0,0,1,1,1l-9.09,8.52A.72.72,0,0,1,155.42,161.33Z" transform="translate(-0.86 -0.01)"/><path class="cls-4" d="M155.9,145.19a.72.72,0,0,1-.78-.39.7.7,0,0,1,.33-.94l10.78-5.18a.7.7,0,0,1,.61,1.27l-10.77,5.18Z" transform="translate(-0.86 -0.01)"/><path class="cls-4" d="M120,156.35a.81.81,0,0,1-.22,0l-18.76-2.12a.7.7,0,1,1,.16-1.4L120,155a.7.7,0,0,1,.06,1.39Z" transform="translate(-0.86 -0.01)"/><path class="cls-4" d="M125.54,165.17h-.06l-13.32,1.62a.71.71,0,0,1-.17-1.4l13.32-1.62a.7.7,0,0,1,.79.61A.71.71,0,0,1,125.54,165.17Z" transform="translate(-0.86 -0.01)"/><path class="cls-4" d="M122.93,173.76a.71.71,0,0,1-.78-.39.7.7,0,0,1,.33-.94l7.87-3.84a.71.71,0,1,1,.62,1.27l-7.88,3.84A1,1,0,0,1,122.93,173.76Z" transform="translate(-0.86 -0.01)"/><path class="cls-4" d="M130.41,175.93a.7.7,0,0,1-.5-1.3l3.73-2.16a.72.72,0,0,1,1,.26.71.71,0,0,1-.26,1l-3.73,2.16A.6.6,0,0,1,130.41,175.93Z" transform="translate(-0.86 -0.01)"/><path class="cls-4" d="M136.81,177.26a.71.71,0,0,1-.72-.29,169,169,0,0,0-10.84-13.67,165,165,0,0,1-11.49-14.93.71.71,0,0,1,1.17-.79,162.6,162.6,0,0,0,11.36,14.76,170.57,170.57,0,0,1,11,13.82.69.69,0,0,1-.17,1A.68.68,0,0,1,136.81,177.26Z" transform="translate(-0.86 -0.01)"/><path class="cls-23" d="M655.8,344s1.6-36.94,11.53-59.2,43.8-31.13,45-18.16-29.5,14-36.68,18.54-11.77,24.79-15.51,37.35A112.44,112.44,0,0,0,655.8,344Z" transform="translate(-0.86 -0.01)"/><path class="cls-23" d="M649.67,334.77c-1.31-6.16,5.26-54.32-1.31-65.93s-30.1-15.12-31.47-27.38,4.41-20.18,23.63-11.18,17,51.12,15.28,65.53-3,40-3,40Z" transform="translate(-0.86 -0.01)"/><path class="cls-23" d="M670.23,328.48S674,300.93,694,290.69s37.53,6.3,34.9,12.7-25.32-5.52-36.83-2.37-19.66,28-19.66,28Z" transform="translate(-0.86 -0.01)"/><path class="cls-4" d="M651.74,325.69h0a.5.5,0,0,1-.44-.55c0-.45,5.07-44.64,2.19-58.44-1.92-9.17-9-14.22-14.75-18.29-2.85-2-5.31-3.77-6.48-5.64-.3-.49-1.12-1.79-.3-2.4,1.75-1.3,11,5.23,14.65,9.37.62.69,1.19,1,1.43.8.87-.69.68-5.65-3.63-11.69-3.83-5.37-13.42-9-18.64-7-2.93,1.11-4.25,3.84-3.81,7.88,1.46,13.6,26.06,19.46,26.31,19.52a.5.5,0,0,1,.37.6.48.48,0,0,1-.6.37c-1-.24-25.53-6.08-27.07-20.38-.62-5.74,2.08-8,4.44-8.92,5.68-2.17,15.68,1.53,19.81,7.32s5.17,11.66,3.45,13c-.44.35-1.37.69-2.8-.92-4.22-4.75-12.13-9.59-13.3-9.23a6,6,0,0,0,.54,1.07c1.06,1.7,3.44,3.4,6.21,5.36,5.54,3.94,13.15,9.35,15.15,18.9,2.91,13.95-2,56.93-2.18,58.75A.5.5,0,0,1,651.74,325.69Z" transform="translate(-0.86 -0.01)"/><path class="cls-4" d="M658.53,325.69h-.09a.5.5,0,0,1-.4-.58c.26-1.39,6.34-34.11,11.81-40.44,3.45-4,12.09-6.36,20.45-8.66,5.11-1.4,9.94-2.72,13.14-4.31,3.37-1.67,5.26-3.89,4.7-5.53-.62-1.79-4.45-3.24-13.24-1.43-5.75,1.18-9.68,3.37-11.67,6.51a8.31,8.31,0,0,0-1.27,6,.51.51,0,0,1-.37.6.51.51,0,0,1-.61-.37,9.35,9.35,0,0,1,1.4-6.73c2.15-3.38,6.29-5.72,12.32-6.95,8-1.64,13.37-.86,14.38,2.09.74,2.16-1.29,4.81-5.19,6.74-3.3,1.63-8.17,3-13.32,4.38-8.22,2.26-16.71,4.59-20,8.35-5.29,6.12-11.51,39.63-11.57,40A.51.51,0,0,1,658.53,325.69Z" transform="translate(-0.86 -0.01)"/><path class="cls-4" d="M672.1,325.69l-.13,0a.5.5,0,0,1-.36-.61c.26-.95,6.31-23.38,16.86-27.07,6.09-2.13,16.46.77,24.79,3.1,5.47,1.53,11.11,3.11,12.28,2.08a1.61,1.61,0,0,0,.24-1.81c-1.24-3.82-9.57-10.54-17.1-11.29-6.68-.68-11,1-11.42,2.48-.17.57.44,1,1,1.3,1.66.87,4.38.72,7.26.56,3.38-.18,6.87-.37,9.52.95,4.9,2.44,6,4.34,6.07,4.42a.5.5,0,0,1-.86.5s-1.09-1.75-5.65-4c-2.42-1.21-5.78-1-9-.85-3,.16-5.87.32-7.79-.67-1.72-.89-1.6-2-1.47-2.48.64-2.12,5.48-3.89,12.48-3.19,8,.81,16.6,7.83,18,12a2.5,2.5,0,0,1-.53,2.87c-1.49,1.33-5.77.22-13.21-1.87-8.19-2.29-18.4-5.14-24.19-3.11-10,3.51-16.16,26.15-16.22,26.37A.5.5,0,0,1,672.1,325.69Z" transform="translate(-0.86 -0.01)"/></g><g id="Layer_3" data-name="Layer 3"><polygon class="cls-24" points="554.83 327.38 554.83 556.51 517.55 556.51 517.55 208.86 533.84 208.86 533.84 318.98 554.83 327.38"/><polygon class="cls-25" points="554.83 327.38 554.83 556.51 533.84 556.51 533.84 318.98 554.83 327.38"/><polygon class="cls-26" points="554.83 208.86 554.83 327.38 533.84 318.98 533.84 208.86 554.83 208.86"/><polygon class="cls-27" points="533.84 208.86 533.84 318.98 533.47 318.83 517.55 265.91 517.55 208.86 533.84 208.86"/></g><g id="Layer_1" data-name="Layer 1"><path class="cls-28" d="M623.74,131.84v80.55a13.76,13.76,0,0,1-13.48,14H384.94V131.84c0-29.1,22.71-52.69,50.73-52.69H573a49.13,49.13,0,0,1,11,1.26c20.88,4.81,36.91,23,39.36,45.43A51.47,51.47,0,0,1,623.74,131.84Z" transform="translate(-0.86 -0.01)"/><path class="cls-28" d="M610.26,220.93H384.94v5.47H610.26a13.75,13.75,0,0,0,13.48-14v-5.46A13.75,13.75,0,0,1,610.26,220.93Z" transform="translate(-0.86 -0.01)"/><path class="cls-29" d="M623.74,132.61v50.57H486.08V126.83H623.42A52.62,52.62,0,0,1,623.74,132.61Z" transform="translate(-0.86 -0.01)"/><path class="cls-30" d="M623.42,125.83C620.55,99.56,599.08,79.16,573,79.16H559.34c26.07,0,47.54,20.4,50.41,46.67a54.34,54.34,0,0,1,.33,6v80.55a13.76,13.76,0,0,1-13.49,14h13.67a13.75,13.75,0,0,0,13.48-14V131.84A56.9,56.9,0,0,0,623.42,125.83Z" transform="translate(-0.86 -0.01)"/><circle class="cls-31" cx="510.14" cy="146.54" r="13.1" transform="translate(250.24 609.8) rotate(-76.81)"/><path class="cls-31" d="M581.72,88.64a11.18,11.18,0,0,1-14.89,2l-3.32-2.22a2.48,2.48,0,0,0-3.44.68l-45.39,61.19-9.13-6.11,43.52-65H573a49.13,49.13,0,0,1,11,1.26A10.91,10.91,0,0,1,581.72,88.64Z" transform="translate(-0.86 -0.01)"/><path class="cls-32" d="M577.62,68.54l-6-4a14.32,14.32,0,0,0-19.87,3.94l-2.29,3.43-1.9,2.84-43.69,65.3,12.21,8.17L558.41,85a2.49,2.49,0,0,1,3.44-.68l3.32,2.22a11.15,11.15,0,0,0,14.88-2A10.93,10.93,0,0,0,577.62,68.54Z" transform="translate(-0.86 -0.01)"/><path class="cls-33" d="M548,79.3l1.9-2.84,3.3-4.93a12.5,12.5,0,0,1,17.36-3.44l7.49,5a10.84,10.84,0,0,1,4.32,5.76,10.91,10.91,0,0,0-4.78-10.31l-5.83-3.91a14.52,14.52,0,0,0-20.12,4l-2.19,3.29-1.9,2.84-43.69,65.3,2.42,1.62Z" transform="translate(-0.86 -0.01)"/><circle class="cls-34" cx="508.9" cy="145.09" r="13.1" transform="translate(283.72 624.35) rotate(-80.83)"/><path class="cls-35" d="M497.8,146.4A13.1,13.1,0,0,1,517,134.82a13.1,13.1,0,1,0-14.24,21.85A13.06,13.06,0,0,1,497.8,146.4Z" transform="translate(-0.86 -0.01)"/><circle class="cls-36" cx="508.87" cy="145.91" r="5.01"/><circle class="cls-32" cx="508.04" cy="145.08" r="5.01"/><path class="cls-33" d="M504.64,145.84A5,5,0,0,1,512.8,142a5,5,0,1,0-7,7A5,5,0,0,1,504.64,145.84Z" transform="translate(-0.86 -0.01)"/><path class="cls-29" d="M382.21,226.4V132.62a53.47,53.47,0,0,1,106.93,0V226.4Z" transform="translate(-0.86 -0.01)"/><path class="cls-37" d="M434.82,81.88h0a50.73,50.73,0,0,1,50.73,50.73v91a0,0,0,0,1,0,0H384.09a0,0,0,0,1,0,0v-91a50.73,50.73,0,0,1,50.73-50.73Z"/><path class="cls-29" d="M483.67,132.62v88.32h-96V132.62a48,48,0,1,1,96,0Z" transform="translate(-0.86 -0.01)"/><line class="cls-38" x1="386.82" y1="220.79" x2="482.81" y2="220.79"/><path class="cls-37" d="M388.54,223.67h97.87l-29.23,41.62a79,79,0,0,1-64.73,33.32h0c-24,0-38.09-26.26-24.53-45.57Z" transform="translate(-0.86 -0.01)"/><path class="cls-28" d="M392.45,296.12a26.89,26.89,0,0,1-24.08-14.21A25.71,25.71,0,0,1,370,254.45l19.86-28.29h91.7l-26.5,37.73A76.46,76.46,0,0,1,392.45,296.12Z" transform="translate(-0.86 -0.01)"/><path class="cls-39" d="M398.82,290.36a28.19,28.19,0,0,1-25.25-14.91,26.88,26.88,0,0,1,.17-26.31L370,254.45a25.71,25.71,0,0,0-1.65,27.46,26.89,26.89,0,0,0,24.08,14.21A77,77,0,0,0,443,277.26,80.92,80.92,0,0,1,398.82,290.36Z" transform="translate(-0.86 -0.01)"/><rect class="cls-37" x="551.03" y="151.34" width="22.32" height="10.02" rx="5.01"/><rect class="cls-37" x="587.19" y="136.02" width="16.74" height="25.34" rx="8.37"/><rect class="cls-37" x="496.82" y="195.81" width="21.69" height="9.05" rx="4.53"/><rect class="cls-37" x="489.48" y="93.49" width="24.09" height="9.57" rx="4.78"/><path class="cls-40" d="M483.67,132.62v88.32H462.18c.11-2.93.23-5.85.34-8.66,10-136.94-51.87-120.34-51.87-120.34l.22-.4a48,48,0,0,1,72.8,41.08Z" transform="translate(-0.86 -0.01)"/><ellipse class="cls-33" cx="569.84" cy="78.41" rx="4.88" ry="7.63" transform="translate(216.15 532.68) rotate(-60)"/></g><g id="Layer_2" data-name="Layer 2"><path class="cls-41" d="M389.61,512a80.47,80.47,0,0,0-.61,15.44c.45,5.24,2.79,15.53,3.95,20.4a3.86,3.86,0,0,0,3.35,3c8.4.87,34.42,3.58,50.9,5.16,13.29,1.28,23,1.53,28,1.56a3.67,3.67,0,0,0,3.69-3.9c-.36-5.85-2.1-16.94-9.87-23.08-10.89-8.6-41.13-24.15-41.13-24.15Z" transform="translate(-0.86 -0.01)"/><path class="cls-42" d="M478.86,553.62c-.36-5.85-2.1-16.94-9.87-23.08A135,135,0,0,0,456,522c-17.85,5.75-18.85,27.87-18.85,27.87a77.61,77.61,0,0,0,5.34,5.68l4.69.45c13.29,1.28,23,1.53,28,1.56A3.67,3.67,0,0,0,478.86,553.62Z" transform="translate(-0.86 -0.01)"/><path class="cls-43" d="M478.86,553.62c-.05-.86-.14-1.85-.27-2.92-29.8-2.09-75.28-7.22-86.95-8.56.49,2.2.95,4.22,1.31,5.7a3.86,3.86,0,0,0,3.35,3c8.4.87,34.42,3.58,50.9,5.16,13.29,1.28,23,1.53,28,1.56A3.67,3.67,0,0,0,478.86,553.62Z" transform="translate(-0.86 -0.01)"/><circle class="cls-42" cx="402.19" cy="529.39" r="7.44"/><path class="cls-44" d="M431.51,509.52s-7,2.28-11.33,6.54" transform="translate(-0.86 -0.01)"/><path class="cls-44" d="M440.92,514.16s-7,2.28-11.33,6.54" transform="translate(-0.86 -0.01)"/><path class="cls-44" d="M448.92,518.69s-7,2.28-11.32,6.54" transform="translate(-0.86 -0.01)"/><path class="cls-45" d="M224.73,306.49S187.87,320.31,168,364.77c-25.8,57.62-20.06,108.57-20.06,108.57H296.4l7.46-131s-11.47-27.37-31.54-32S224.73,306.49,224.73,306.49Z" transform="translate(-0.86 -0.01)"/><path class="cls-46" d="M272.32,310.29c-2.76-.64-5.67-1.17-8.63-1.62V335.6s13.26,4.62,22.22-3.4a24.43,24.43,0,0,0,6.18-8.62C287,317.66,280.35,312.16,272.32,310.29Z" transform="translate(-0.86 -0.01)"/><path class="cls-46" d="M182.45,371.87,180,444.3h5.73S185.17,469,199.5,467s5.74-96.33,5.74-96.33Z" transform="translate(-0.86 -0.01)"/><path class="cls-47" d="M339.41,361.82s23.51-32.11,42.43-28.67,29.24,36.13,32.11,60.78S430,510.33,430,510.33H400.76L336,439.8s-12,36.12-40.71,70.53-75.11,13.18-75.11,13.18S325.65,350.35,339.41,361.82Z" transform="translate(-0.86 -0.01)"/><path class="cls-48" d="M235.86,285l-11.13,21.5s3.16,19.78,22.94,26.66,27.23-1.43,29.24-6.88S235.86,285,235.86,285Z" transform="translate(-0.86 -0.01)"/><path d="M240.21,274.86s-9-13.95-1.14-35.36,24.27-18,24.27-18L284,225a40.84,40.84,0,0,1,17,11,26.82,26.82,0,0,1,6,11c2.86,10.85-2.36,21.74-3.14,21.55-.49-.11-.06-4.69,3.14-21.55h0q-1.58,10.77-3.14,21.55l-52,24.28Z" transform="translate(-0.86 -0.01)"/><path class="cls-49" d="M235.86,285l-4,7.76,7.13,4.12s2.12,30.62,24.72,38.73c8.13-.87,11.89-5.71,13.22-9.33C278.92,320.83,235.86,285,235.86,285Z" transform="translate(-0.86 -0.01)"/><path class="cls-48" d="M241.07,293.88s2.39,19.59,17.87,28.38c3.44,1.95,13,8.2,22.53,4.66,8-3,11.55-11.27,14.25-17.61,2.13-5,2.33-7.85,5.08-23.75,1.28-7.39,2.37-13.34,3.06-17L268.5,253.84s-3.63,9.55-8,18.92-8.41,13.38-8.41,13.38-1.91-22.37-11.85-18.16S226.83,288.81,241.07,293.88Z" transform="translate(-0.86 -0.01)"/><path class="cls-50" d="M147.9,473.34H180s92.54-110.81,105.9-125.28,35.73-28.62,50.06-12.3,75.11,178,75.11,178l-43,6.3-56.77-99.76s-39,108.94-86.58,123.27S147.9,501.54,147.9,473.34Z" transform="translate(-0.86 -0.01)"/><path class="cls-47" d="M189.53,462s1.16,4.16,19.33,5.19c16,.91,70.53-1.8,83.17-2.46q2.14-4.32,4.09-8.44l.57-3.26-93.95-6.81C197.67,452.22,193.17,457.61,189.53,462Z" transform="translate(-0.86 -0.01)"/><path class="cls-48" d="M231.84,420.31v6.3l66,11.76s15.38-13.67,21.5-16.34,7.07,2.67,6.12,5.73a46.47,46.47,0,0,1-3.06,6.88s23.31-9.32,26.9-5.3-14.77,11.32-14.77,11.32,19.07-4.59,21.36-1.43-17.63,10.46-17.63,10.46,15.2.58,15.63,4.45-18.07,6-18.07,6,9.46,2,10,3.58-2.15,5.88-18.49,4.44-25.09-6.48-25.09-6.48-102.09-2.25-106.35-7.39-6.75-25-6.75-25S217,418.59,231.84,420.31Z" transform="translate(-0.86 -0.01)"/><path class="cls-48" d="M416.91,418s-9.61-4.3-11.47-8.6,2.29-7.16,8.75-4.15,14.9,10.6,17.05,17.2-1.43,19.78-5.87,23.79-24.68,2-24-2.51c.54-3.71,12.14-4.94,12.14-4.94s-16-.93-16.44-5.81,18-3.8,18-3.8-20.91-5.31-19.64-10.32C397.13,412.09,416.91,418,416.91,418Z" transform="translate(-0.86 -0.01)"/><path class="cls-41" d="M370.68,519.69a80.82,80.82,0,0,0-.6,15.43c.45,5.25,2.79,15.54,3.94,20.41a3.86,3.86,0,0,0,3.36,3c8.4.87,34.42,3.58,50.9,5.16,13.29,1.28,23,1.53,28,1.56a3.68,3.68,0,0,0,3.7-3.9c-.36-5.86-2.1-16.95-9.87-23.08-10.9-8.6-41.13-24.15-41.13-24.15Z" transform="translate(-0.86 -0.01)"/><path class="cls-42" d="M459.94,561.31c-.36-5.86-2.1-16.95-9.87-23.08a132.23,132.23,0,0,0-13-8.58c-17.84,5.75-18.84,27.87-18.84,27.87s2,2.4,5.34,5.67l4.69.46c13.29,1.28,23,1.53,28,1.56A3.68,3.68,0,0,0,459.94,561.31Z" transform="translate(-0.86 -0.01)"/><path class="cls-43" d="M459.94,561.31c-.05-.86-.14-1.86-.27-2.92-29.8-2.09-75.28-7.22-86.95-8.56.49,2.2.95,4.21,1.3,5.7a3.86,3.86,0,0,0,3.36,3c8.4.87,34.42,3.58,50.9,5.16,13.29,1.28,23,1.53,28,1.56A3.68,3.68,0,0,0,459.94,561.31Z" transform="translate(-0.86 -0.01)"/><path class="cls-42" d="M391.57,537.09a7.45,7.45,0,1,1-7.45-7.44A7.46,7.46,0,0,1,391.57,537.09Z" transform="translate(-0.86 -0.01)"/><path class="cls-44" d="M412.59,517.21s-7,2.27-11.33,6.53" transform="translate(-0.86 -0.01)"/><path class="cls-44" d="M422,521.85s-7,2.28-11.33,6.54" transform="translate(-0.86 -0.01)"/><path class="cls-44" d="M430,526.38s-7,2.28-11.32,6.54" transform="translate(-0.86 -0.01)"/><path class="cls-45" d="M235.34,420.74l-6.55-54.1a23.29,23.29,0,0,0-28.87-19.77h0a23.28,23.28,0,0,0-17.53,23.39l2.21,62.66S217.79,421,235.34,420.74Z" transform="translate(-0.86 -0.01)"/><path class="cls-51" d="M242.51,287.86s2.92-10.09-2.3-13" transform="translate(-0.86 -0.01)"/></g></g></svg>